<?xml version="1.0" standalone="no"?>
<!DOCTYPE svg PUBLIC "-//W3C//DTD SVG 20010904//EN"
 "http://www.w3.org/TR/2001/REC-SVG-20010904/DTD/svg10.dtd">
<svg version="1.0" xmlns="http://www.w3.org/2000/svg"
 width="194.000000pt" height="194.000000pt" viewBox="0 0 194.000000 194.000000"
 preserveAspectRatio="xMidYMid meet">
<metadata>
Created by potrace 1.11, written by Peter Selinger 2001-2013
</metadata>
<g transform="translate(0.000000,194.000000) scale(0.100000,-0.100000)"
fill="#000000" stroke="none">
<path d="M942 1913 c-7 -2 -42 -44 -79 -91 -147 -191 -346 -408 -488 -532 -33
-29 -73 -65 -90 -79 -34 -30 -172 -134 -227 -171 -46 -31 -62 -62 -47 -92 6
-13 50 -51 97 -84 170 -120 410 -338 568 -514 46 -52 174 -215 221 -283 28
-40 38 -47 65 -47 30 0 40 9 99 88 206 274 459 528 724 725 50 36 102 76 118
88 33 25 35 61 5 89 -13 11 -69 54 -125 95 -145 105 -238 187 -390 341 -130
132 -275 302 -343 401 -41 61 -73 80 -108 66z m91 -259 c102 -52 372 -306 516
-484 137 -171 146 -192 107 -267 -71 -141 -484 -551 -632 -628 -58 -30 -101
-16 -209 70 -246 196 -540 513 -560 604 -8 39 16 86 98 186 116 145 321 343
480 467 98 75 135 85 200 52z"/>
<path d="M873 1577 c-151 -110 -362 -312 -486 -467 -78 -96 -90 -122 -82 -162
21 -93 442 -523 611 -624 34 -20 46 -22 73 -14 104 30 481 387 619 587 43 62
29 105 -78 238 -135 166 -417 428 -516 478 -46 23 -67 18 -141 -36z m146 -242
c28 -76 51 -144 51 -150 0 -7 -15 -11 -32 -11 l-33 1 3 -148 3 -148 -48 3
c-44 3 -48 5 -46 28 0 14 4 78 7 143 6 121 5 122 -36 118 -27 -3 -28 13 -4 80
13 35 35 101 50 147 16 46 29 82 31 80 2 -2 26 -66 54 -143z m-220 -249 l44
-28 -54 -18 c-65 -22 -114 -72 -98 -101 49 -92 441 -104 559 -18 37 28 38 58
4 90 -20 18 -36 24 -70 23 -41 -1 -44 1 -55 33 -6 19 -9 35 -7 37 1 1 41 -8
88 -20 47 -12 76 -22 66 -23 -16 -1 -11 -8 22 -37 83 -71 37 -135 -129 -180
-85 -22 -301 -27 -389 -9 -270 58 -307 175 -85 266 48 20 49 20 104 -15z m218
-316 c0 -14 3 -79 5 -145 l3 -120 -63 -1 -62 -2 4 77 c3 42 5 109 5 149 l1 73
53 -3 c48 -3 52 -5 54 -28z"/>
<path d="M1259 213 c-17 -4 -39 -43 -39 -68 0 -24 38 -55 68 -55 39 1 65 24
65 60 0 53 -38 78 -94 63z m72 -41 c12 -30 -12 -72 -40 -72 -51 0 -66 81 -18
99 30 11 47 3 58 -27z"/>
<path d="M1268 183 c-9 -17 -7 -63 2 -63 6 0 10 8 10 18 1 13 4 11 15 -8 16
-28 16 -28 18 20 2 29 -2 36 -20 38 -11 2 -23 0 -25 -5z m32 -13 c0 -5 -4 -10
-10 -10 -5 0 -10 5 -10 10 0 6 5 10 10 10 6 0 10 -4 10 -10z"/>
</g>
</svg>
