<?xml version="1.0" encoding="UTF-8"?>
<!DOCTYPE svg PUBLIC "-//W3C//DTD SVG 1.1//EN" "http://www.w3.org/Graphics/SVG/1.1/DTD/svg11.dtd">
<!-- Creator: CorelDRAW X7 -->
<svg xmlns="http://www.w3.org/2000/svg" xml:space="preserve" width="510px" height="100px" version="1.1" style="shape-rendering:geometricPrecision; text-rendering:geometricPrecision; image-rendering:optimizeQuality; fill-rule:evenodd; clip-rule:evenodd"
viewBox="0 0 589 116"
 xmlns:xlink="http://www.w3.org/1999/xlink">
 <defs>
  <style type="text/css">
   <![CDATA[
    .fil1 {fill:#008445;fill-rule:nonzero}
    .fil3 {fill:#231F20;fill-rule:nonzero}
    .fil4 {fill:#648D3D;fill-rule:nonzero}
    .fil0 {fill:#6D6E71;fill-rule:nonzero}
    .fil2 {fill:#77BD43;fill-rule:nonzero}
    .fil6 {fill:white;fill-rule:nonzero}
    .fil5 {fill:url(#id0)}
   ]]>
  </style>
  <linearGradient id="id0" gradientUnits="userSpaceOnUse" x1="48.2678" y1="20.0803" x2="48.2678" y2="69.4634">
   <stop offset="0" style="stop-opacity:1; stop-color:#77BD43"/>
   <stop offset="1" style="stop-opacity:1; stop-color:#658D3D"/>
  </linearGradient>
 </defs>
 <g id="Layer_x0020_1">
  <metadata id="CorelCorpID_0Corel-Layer"/>
  <path class="fil0" d="M118 46l-5 0c-2,0 -7,0 -7,0l0 0c0,-6 0,-12 0,-18l0 -5c0,-7 0,-15 0,-22l0 -1 5 0c2,0 5,0 7,0l0 0c0,9 0,18 0,27 0,6 0,12 0,18l0 1z"/>
  <path class="fil0" d="M154 37c0,3 0,6 0,8l-1 1c-9,0 -19,0 -28,0l-1 -1c1,-6 1,-11 1,-17l0 -14c0,-4 0,-9 -1,-13l1 -1c7,0 24,0 28,0l0 0c0,3 0,5 0,8l-1 0c-5,0 -11,0 -16,0 0,1 0,3 0,5 0,2 0,4 0,5 5,0 10,0 15,0l1 1c0,2 0,4 -1,7l0 0c-9,0 -15,0 -15,0 0,4 0,8 0,11 6,0 12,0 18,0l0 0z"/>
  <path class="fil0" d="M187 37c0,3 0,6 0,8l-1 1c-9,0 -19,0 -28,0l-1 -1c1,-6 1,-11 1,-17l0 -14c0,-4 0,-9 -1,-13l1 -1c7,0 24,0 28,0l0 0c0,3 0,5 0,8l-1 0c-5,0 -11,0 -16,0 0,1 0,3 0,5 0,2 0,4 0,5 5,0 10,0 16,0l0 1c0,2 0,4 -1,7l0 0c-9,0 -15,0 -15,0 0,4 0,8 0,11 6,0 12,0 18,0l0 0z"/>
  <path class="fil0" d="M220 37c0,3 0,6 0,8l-1 1c-9,0 -19,0 -28,0l-1 -1c1,-6 1,-11 1,-17l0 -14c0,-4 0,-9 -1,-13l1 -1c7,0 24,0 28,0l0 0c0,3 0,5 0,8l0 0c-6,0 -12,0 -17,0 0,1 0,3 0,5 0,2 0,4 0,5 5,0 10,0 16,0l0 1c0,2 0,4 0,7l-1 0c-9,0 -15,0 -15,0 0,4 0,8 0,11 6,0 12,0 18,0l0 0z"/>
  <path class="fil1" d="M147 56l1 5c-3,-1 -7,-1 -13,-1l-17 0c-3,0 -3,1 -3,5l0 36c0,4 0,5 3,5l17 0c6,0 10,0 13,-1l0 5 -30 0c-9,0 -12,-2 -12,-10l0 -33c0,-9 3,-11 12,-11l29 0z"/>
  <path class="fil1" d="M165 74c-3,0 -3,1 -3,5l0 23c0,4 0,4 3,4l23 0c3,0 4,0 4,-4l0 -23c0,-4 -1,-5 -4,-5l-23 0zm34 26c0,8 -3,10 -10,10l-24 0c-8,0 -10,-2 -10,-10l0 -19c0,-8 2,-11 10,-11l24 0c7,0 10,3 10,11l0 19z"/>
  <path class="fil1" d="M216 56l0 46c0,4 0,6 1,8l-9 0c1,-2 1,-4 1,-8l0 -37c0,-4 0,-7 -1,-9l8 0z"/>
  <path class="fil1" d="M234 56l0 46c0,4 0,6 0,8l-8 0c0,-2 0,-4 0,-8l0 -37c0,-4 0,-7 0,-9l8 0z"/>
  <path class="fil1" d="M280 87l-26 0c-3,0 -3,1 -3,5l0 10c0,4 0,4 3,4l23 0c2,0 3,0 3,-4l0 -15zm7 15c0,4 0,6 1,8l-7 0 -1 -2 0 0c0,1 -1,2 -1,2 -1,0 -2,0 -4,0l-21 0c-8,0 -10,-2 -10,-10l0 -6c0,-8 2,-10 10,-10l23 0c2,0 3,-1 3,-5l0 0c0,-4 -1,-5 -3,-5l-24 0c-4,0 -6,1 -9,1l1 -5 32 0c8,0 10,3 10,11l0 21z"/>
  <path class="fil1" d="M304 102c0,4 1,4 4,4l22 0c3,0 3,0 3,-4l0 -23c0,-4 0,-5 -3,-5l-22 0c-3,0 -4,1 -4,5l0 23zm0 -46l0 17 0 0c0,-1 1,-2 2,-2 1,0 2,-1 4,-1l20 0c8,0 11,3 11,11l0 19c0,8 -3,10 -11,10l-21 0c-3,0 -5,-1 -5,-3l0 0 -1 3 -7 0c1,-2 1,-4 1,-8l0 -37c0,-4 0,-7 -1,-9l8 0z"/>
  <path class="fil1" d="M377 70l-1 6c-1,0 -6,0 -10,0l-6 0c-3,0 -4,0 -4,4l0 22c0,4 0,6 1,8l-9 0c1,-2 1,-4 1,-8l0 -23c0,-4 0,-6 -1,-9l8 0 0 4 0 0c1,-2 2,-4 5,-4l16 0z"/>
  <path class="fil1" d="M418 87l-26 0c-3,0 -3,1 -3,5l0 10c0,4 0,4 3,4l23 0c3,0 3,0 3,-4l0 -15zm7 15c0,4 1,6 1,8l-7 0 0 -2 -1 0c0,1 -1,2 -1,2 -1,0 -2,0 -4,0l-21 0c-8,0 -10,-2 -10,-10l0 -6c0,-8 2,-10 10,-10l23 0c3,0 3,-1 3,-5l0 0c0,-4 0,-5 -3,-5l-24 0c-4,0 -6,1 -9,1l1 -5 32 0c8,0 10,3 10,11l0 21z"/>
  <path class="fil2" d="M468 76l-14 0 0 24c0,3 1,4 3,4l6 0c4,0 8,0 9,-1l-2 7 -22 0c-5,0 -9,-3 -9,-11l0 -23 -8 0 0 -6 8 0 0 -8 15 -2 0 10 14 0 0 6z"/>
  <path class="fil2" d="M510 88l0 -8c0,-3 -1,-3 -3,-3l-13 0c-2,0 -2,0 -2,3l0 8 18 0zm-18 6l0 7c0,2 0,3 2,3l26 0c1,0 3,0 5,-1l-2 7 -36 0c-7,0 -10,-3 -10,-10l0 -19c0,-7 3,-11 10,-11l28 0c6,0 10,4 10,11l0 13 -33 0z"/>
  <path class="fil2" d="M550 77c-2,0 -3,0 -3,3l0 21c0,2 1,3 3,3l20 0c1,0 2,0 4,-1l-1 7 -31 0c-6,0 -10,-3 -10,-10l0 -19c0,-7 4,-11 10,-11l31 0 1 7c-2,0 -3,0 -4,0l-20 0z"/>
  <path class="fil3" d="M583 70c0,1 0,1 0,1l0 0c-1,0 -1,0 -2,0 0,0 0,1 0,1 0,1 0,4 0,5l0 0c0,0 0,0 0,0l-1 0c0,0 0,-1 0,-2 0,-1 0,-3 0,-4 0,0 -1,0 -1,0l0 0c0,0 0,0 0,-1l0 0 1 0c1,0 2,0 3,0l0 0z"/>
  <path class="fil3" d="M589 77c0,0 0,0 0,0l0 0c0,-2 -1,-4 -1,-6 -1,5 -1,6 -1,6l0 0c-1,0 -1,0 -1,0l0 0c0,0 0,-2 -2,-6 0,3 0,4 0,6l0 0c0,0 0,0 0,0l0 0c0,-1 0,-6 0,-7l0 0c0,0 1,0 1,0l0 0c0,1 0,1 1,7 1,-4 2,-5 2,-7l0 0c0,0 1,0 1,0l0 0c0,3 0,5 0,7l0 0 0 0z"/>
  <path class="fil4" d="M92 47c0,-5 0,-9 -1,-11 -1,-4 -2,-8 -3,-10 -2,-3 -3,-5 -5,-7 -5,-4 -12,-6 -24,-8l-12 -2c-12,-3 -23,-3 -26,-2 -4,1 -7,3 -10,5 -3,2 -5,5 -7,9 -1,3 -2,8 -3,14 -1,6 -1,13 -1,21l0 0 0 0c0,10 0,18 1,25 0,6 1,11 2,15 2,10 7,16 14,18 6,2 17,2 30,0l12 -2c6,-1 10,-2 13,-3 4,-1 6,-3 8,-4 2,-1 4,-3 6,-5 2,-3 3,-5 4,-8 1,-3 2,-7 2,-12 0,-4 0,-9 0,-15 0,-7 0,-13 0,-18z"/>
  <path class="fil5" d="M86 57l0 -18c0,-9 -6,-17 -13,-18l0 0 -43 -7c-1,0 -2,0 -3,0l0 0c-9,0 -17,8 -17,18l0 0 0 24c0,11 9,20 20,20l0 0 43 -2c7,-1 13,-8 13,-17z"/>
  <path class="fil6" d="M52 79c0,0 -1,-1 -1,-1l-2 1c-10,1 -19,-7 -19,-20 0,-6 3,-12 6,-16 4,-4 7,-5 12,-5l11 1c0,0 1,0 1,-1l0 -8c0,-1 0,-1 -1,-1l-11 -1c-16,-2 -29,12 -29,31 0,18 12,33 30,30l2 -1c0,0 1,0 1,0l0 -9z"/>
  <path class="fil6" d="M80 48l-34 -2c-1,0 -1,1 -1,1l0 8c0,1 0,1 1,1l14 0 0 42c0,1 0,1 1,1l7 -1c0,0 1,0 1,-1l0 -41 11 0c1,0 1,0 1,-1l0 -6c0,-1 0,-1 -1,-1z"/>
 </g>
</svg>
