<?xml version="1.0" encoding="UTF-8"?>
<!DOCTYPE svg PUBLIC "-//W3C//DTD SVG 1.1//EN" "http://www.w3.org/Graphics/SVG/1.1/DTD/svg11.dtd">
<!-- Creator: CorelDRAW X7 -->
<svg xmlns="http://www.w3.org/2000/svg" xml:space="preserve" width="264px" height="100px" version="1.1" style="shape-rendering:geometricPrecision; text-rendering:geometricPrecision; image-rendering:optimizeQuality; fill-rule:evenodd; clip-rule:evenodd"
viewBox="0 0 305 115"
 xmlns:xlink="http://www.w3.org/1999/xlink">
 <defs>
  <style type="text/css">
   <![CDATA[
    .fil0 {fill:#0070A7}
    .fil1 {fill:#0070A7;fill-rule:nonzero}
   ]]>
  </style>
 </defs>
 <g id="Layer_x0020_1">
  <metadata id="CorelCorpID_0Corel-Layer"/>
  <polygon class="fil0" points="132,68 132,11 148,11 148,68 "/>
  <polygon class="fil0" points="156,68 156,11 200,11 200,22 172,22 172,34 198,34 198,45 172,45 172,57 200,57 200,68 "/>
  <polygon class="fil0" points="209,68 209,11 253,11 253,22 225,22 225,34 250,34 250,45 225,45 225,57 253,57 253,68 "/>
  <polygon class="fil0" points="262,68 262,11 305,11 305,22 277,22 277,34 303,34 303,45 277,45 277,57 305,57 305,68 "/>
  <path class="fil0" d="M55 68c0,6 0,12 -1,18 3,0 6,0 8,0l-1 -17 0 -1c-2,0 -4,0 -6,0l0 0zm-15 -18c-3,2 -7,4 -7,8 1,3 3,4 5,5 11,5 25,5 36,1 3,-1 7,-2 7,-6 0,-2 -3,-4 -5,-5l0 0c1,-1 2,-1 2,-1l0 0c-3,-1 -7,-2 -11,-3 1,2 2,3 2,5 1,0 2,0 4,-1 2,1 4,2 5,5 0,2 -3,3 -4,4 -9,3 -18,3 -26,1 -3,-1 -6,-2 -7,-5 2,-4 6,-5 10,-6 -2,-1 -4,-2 -5,-3 -2,0 -4,1 -6,1zm18 -24l-1 4 -5 15c1,0 3,0 4,0l0 0 -1 18 1 0c1,0 3,0 5,0l0 0 -1 -17 1 -1 4 0c-2,-6 -4,-12 -7,-19l0 0zm-2 -7c4,-3 7,1 10,3 12,9 23,20 32,33 1,1 1,4 0,5 -2,4 -5,7 -8,11l0 0c-7,8 -14,15 -22,22 -4,2 -8,7 -13,4 -11,-8 -22,-19 -31,-30 -2,-3 -4,-5 -6,-7 -1,-4 2,-7 4,-10 10,-11 22,-23 34,-31zm10 -12l-5 -6c0,0 -1,-1 -1,-1 -1,0 -1,0 -1,0l-1 0c0,0 -1,1 -2,1l-8 10c-13,16 -28,31 -44,42 -2,1 -3,2 -4,4 0,1 0,3 1,3 14,9 26,20 37,32 2,3 4,5 6,7 3,4 7,8 10,13 1,1 1,3 2,3 2,0 3,1 4,0l1 -1c14,-19 31,-37 50,-51 2,-1 6,-2 6,-5 0,-2 -1,-3 -2,-4l-1 0c-9,-7 -19,-14 -27,-23l-10 -10c-4,-4 -8,-9 -11,-14zm-12 9c4,-3 9,0 12,3 4,2 7,5 10,8l1 0c9,8 17,17 23,27 1,1 2,3 2,5 -3,6 -7,10 -11,15 -8,9 -17,18 -27,25 -2,1 -5,3 -7,1 -8,-3 -14,-10 -20,-15 -8,-7 -15,-15 -21,-24 -1,-1 -1,-2 -1,-4 1,-3 3,-5 5,-8 6,-8 15,-16 23,-24 0,0 0,0 1,0 3,-3 7,-6 10,-9z"/>
  <path class="fil0" d="M78 107l-1 0 0 -1 1 0c0,0 1,0 1,0 0,1 0,1 -1,1zm2 -1c0,-1 -1,-1 -2,-1l-2 0 0 4 1 0 0 -1 1 0 1 1 1 0 -1 -2c0,0 1,0 1,-1zm-2 4l0 0c-2,0 -3,-1 -3,-3 0,-2 1,-3 3,-3 2,0 3,1 3,3 0,2 -1,3 -3,3zm0 -7c-2,0 -4,2 -4,4 0,3 2,4 4,4 2,0 4,-1 4,-4 0,-2 -2,-4 -4,-4z"/>
  <path class="fil1" d="M132 107l0 -11 2 0 0 11 -2 0zm3 0l5 -11 1 0 5 11 -2 0 -1 -3 -5 0 -1 3 -2 0zm3 -4l4 0 -1 -4c0,-1 0,-1 -1,-2 0,1 0,1 0,2l-2 4zm17 -7l1 0 0 6c0,2 0,3 0,3 0,1 -1,1 -1,2 -1,0 -2,1 -3,1 -1,0 -2,-1 -3,-1 -1,0 -1,-1 -1,-2 -1,0 -1,-1 -1,-3l0 -6 2 0 0 6c0,1 0,2 0,3 0,0 1,1 1,1 0,0 1,0 2,0 1,0 2,0 2,-1 1,0 1,-1 1,-3l0 -6zm12 7l2 1c-1,1 -1,2 -2,3 -1,0 -2,1 -3,1 -1,0 -2,-1 -3,-1 -1,-1 -2,-1 -2,-2 0,-1 -1,-2 -1,-4 0,-1 1,-2 1,-3 1,-1 1,-1 2,-2 1,0 2,0 3,0 1,0 2,0 3,0 1,1 1,2 2,3l-2 0c0,-1 -1,-1 -1,-2 -1,0 -1,0 -2,0 -1,0 -2,0 -2,0 -1,1 -1,1 -2,2 0,1 0,2 0,2 0,1 0,2 0,3 1,1 1,1 2,2 0,0 1,0 2,0 1,0 1,0 2,-1 1,0 1,-1 1,-2zm7 4l0 -10 -4 0 0 -1 9 0 0 1 -4 0 0 10 -1 0zm6 0l0 -11 5 0c1,0 1,0 2,0 0,0 1,1 1,1 0,1 1,1 1,2 0,0 0,1 -1,1 0,1 0,1 -1,1 1,0 1,1 2,1 0,1 0,1 0,2 0,1 0,1 0,1 0,1 -1,1 -1,2 0,0 -1,0 -1,0 -1,0 -1,0 -2,0l-5 0zm2 -6l2 0c1,0 2,0 2,-1 0,0 1,0 1,0 0,0 0,-1 0,-1 0,-1 0,-1 0,-1 0,0 -1,-1 -1,-1 0,0 -1,0 -2,0l-2 0 0 4zm0 5l3 0c0,0 1,0 1,0 0,0 1,0 1,0 0,-1 0,-1 0,-1 1,0 1,-1 1,-1 0,0 0,-1 -1,-1 0,0 0,-1 -1,-1 0,0 -1,0 -1,0l-3 0 0 4zm13 -2l2 -1c0,1 0,2 0,2 0,0 1,1 1,1 1,0 2,0 2,0 1,0 1,0 2,0 0,0 1,-1 1,-1 0,0 0,0 0,-1 0,0 0,0 0,-1 0,0 -1,0 -1,0 -1,-1 -1,-1 -2,-1 -1,0 -2,-1 -3,-1 0,0 -1,0 -1,-1 0,0 0,-1 0,-1 0,-1 0,-1 0,-2 1,0 1,-1 2,-1 0,0 1,0 2,0 1,0 1,0 2,0 1,0 1,1 2,1 0,1 0,1 0,2l-1 0c0,-1 -1,-1 -1,-2 -1,0 -1,0 -2,0 -1,0 -2,0 -2,0 -1,1 -1,1 -1,2 0,0 0,0 1,1 0,0 1,0 2,1 1,0 2,0 3,0 0,1 1,1 1,1 0,1 1,1 1,2 0,1 -1,1 -1,2 0,0 -1,1 -2,1 0,0 -1,1 -2,1 -1,0 -2,-1 -2,-1 -1,0 -2,-1 -2,-1 0,-1 -1,-2 -1,-2zm15 2l0 1c-1,0 -1,0 -1,0 -1,0 -1,0 -2,0 0,0 0,0 0,0 0,-1 0,-1 0,-2l0 -5 -1 0 0 -1 1 0 0 -2 1 -1 0 3 2 0 0 1 -2 0 0 5c0,0 0,1 0,1 0,0 0,0 0,0 1,0 1,0 1,0 0,0 0,0 1,0zm6 1l0 -1c0,1 -1,2 -2,2 -1,0 -1,-1 -2,-1 0,0 0,0 -1,0 0,-1 0,-1 0,-2 0,0 0,0 0,-1l0 -5 1 0 0 5c0,0 0,1 0,1 1,0 1,1 1,1 0,0 1,0 1,0 1,0 1,0 1,0 1,0 1,-1 1,-1 0,0 0,-1 0,-2l0 -4 2 0 0 8 -2 0zm9 0l0 -1c0,1 -1,2 -2,2 -1,0 -1,-1 -2,-1 0,0 -1,-1 -1,-2 0,0 -1,-1 -1,-2 0,-1 1,-1 1,-2 0,-1 1,-1 1,-2 1,0 1,0 2,0 0,0 1,0 1,0 1,0 1,1 1,1l0 -4 2 0 0 11 -2 0zm-4 -4c0,1 0,2 1,3 0,0 1,0 1,0 1,0 1,0 2,0 0,-1 0,-2 0,-3 0,-1 0,-2 0,-2 -1,-1 -1,-1 -2,-1 -1,0 -1,0 -1,1 -1,0 -1,1 -1,2zm14 2l1 0c0,1 0,1 -1,2 -1,0 -2,1 -2,1 -2,0 -3,-1 -3,-2 -1,0 -1,-1 -1,-3 0,-1 0,-2 1,-3 0,-1 1,-1 2,-1 2,0 2,0 3,1 1,1 1,2 1,3 0,0 0,0 0,0l-6 0c0,1 0,2 1,3 0,0 1,0 2,0 0,0 0,0 1,0 0,0 1,-1 1,-1zm-5 -3l5 0c0,0 -1,-1 -1,-1 0,-1 -1,-1 -2,-1 0,0 -1,0 -1,1 -1,0 -1,1 -1,1zm8 5l0 -8 1 0 0 1c1,-1 2,-1 3,-1 0,0 1,0 1,0 1,0 1,0 1,1 1,0 1,0 1,1 0,0 0,1 0,1l0 5 -2 0 0 -5c0,0 0,-1 0,-1 0,0 0,-1 0,-1 -1,0 -1,0 -1,0 -1,0 -1,0 -2,1 0,0 -1,1 -1,2l0 4 -1 0zm12 -1l0 1c0,0 0,0 -1,0 0,0 -1,0 -1,0 0,0 0,0 -1,0 0,-1 0,-1 0,-2l0 -5 -1 0 0 -1 1 0 0 -2 2 -1 0 3 1 0 0 1 -1 0 0 5c0,0 0,1 0,1 0,0 0,0 0,0 0,0 0,0 0,0 1,0 1,0 1,0zm6 1l0 -11 4 0c1,0 2,0 3,0 0,0 1,1 1,1 0,1 0,1 0,2 0,0 0,1 0,1 0,1 -1,1 -1,1 0,0 1,1 1,1 1,1 1,1 1,2 0,1 0,1 0,1 -1,1 -1,1 -1,2 -1,0 -1,0 -2,0 0,0 -1,0 -1,0l-5 0zm2 -6l2 0c1,0 1,0 2,-1 0,0 0,0 1,0 0,0 0,-1 0,-1 0,-1 0,-1 0,-1 -1,0 -1,-1 -1,-1 -1,0 -1,0 -2,0l-2 0 0 4zm0 5l3 0c0,0 0,0 1,0 0,0 0,0 1,0 0,-1 0,-1 0,-1 0,0 0,-1 0,-1 0,0 0,-1 0,-1 0,0 -1,-1 -1,-1 0,0 -1,0 -2,0l-2 0 0 4zm9 1l0 -8 1 0 0 1c0,0 1,-1 1,-1 0,0 1,0 1,0 0,0 1,0 1,0l0 2c0,-1 -1,-1 -1,-1 0,0 -1,0 -1,1 0,0 0,0 -1,0 0,1 0,1 0,2l0 4 -1 0zm11 -1c-1,1 -1,1 -2,1 0,0 -1,1 -1,1 -1,0 -2,-1 -3,-1 0,-1 0,-1 0,-2 0,0 0,-1 0,-1 0,0 0,-1 1,-1 0,0 0,0 1,0 0,0 1,0 1,-1 1,0 2,0 3,0 0,0 0,0 0,0 0,-1 -1,-1 -1,-2 0,0 -1,0 -1,0 -1,0 -2,0 -2,0 0,1 0,1 -1,2l-1 -1c0,0 0,-1 1,-1 0,0 0,-1 1,-1 0,0 1,0 2,0 1,0 1,0 2,0 0,0 0,0 1,1 0,0 0,0 0,1 0,0 0,0 0,1l0 2c0,1 0,2 0,2 0,1 0,1 1,1l-2 0c0,0 0,0 0,-1zm0 -3c-1,0 -2,1 -3,1 0,0 -1,0 -1,0 0,0 0,0 -1,0 0,1 0,1 0,1 0,0 0,1 1,1 0,0 0,0 1,0 1,0 1,0 1,0 1,0 1,-1 1,-1 1,0 1,-1 1,-1l0 -1zm3 4l0 -8 2 0 0 1c0,-1 1,-1 2,-1 1,0 1,0 2,0 0,0 0,0 1,1 0,0 0,0 0,1 0,0 0,1 0,1l0 5 -1 0 0 -5c0,0 0,-1 -1,-1 0,0 0,-1 0,-1 0,0 -1,0 -1,0 -1,0 -1,0 -2,1 0,0 0,1 0,2l0 4 -2 0zm15 -3l1 0c0,1 0,2 -1,3 -1,0 -1,1 -2,1 -1,0 -2,-1 -3,-2 -1,0 -1,-1 -1,-3 0,-1 0,-2 0,-2 1,-1 1,-1 2,-2 0,0 1,0 2,0 1,0 1,0 2,0 0,1 1,2 1,2l-1 1c0,-1 -1,-1 -1,-2 0,0 -1,0 -1,0 -1,0 -2,0 -2,1 0,0 -1,1 -1,2 0,1 1,2 1,3 0,0 1,0 2,0 0,0 1,0 1,0 0,-1 1,-1 1,-2zm2 3l0 -11 2 0 0 4c0,-1 1,-1 2,-1 1,0 1,0 2,0 0,0 1,1 1,1 0,1 0,1 0,2l0 5 -1 0 0 -5c0,-1 0,-1 -1,-2 0,0 0,0 -1,0 0,0 -1,0 -1,0 -1,1 -1,1 -1,1 0,1 0,1 0,2l0 4 -2 0z"/>
  <path class="fil1" d="M132 91l0 -18 4 0 0 18 -4 0zm7 0l0 -18 7 0c2,0 4,0 5,0 0,1 1,1 2,2 0,1 0,2 0,3 0,1 0,2 -1,3 -1,1 -2,2 -3,2 1,0 1,1 2,1 0,1 1,2 2,3l2 4 -4 0 -3 -4c-1,-2 -2,-2 -2,-3 0,0 -1,0 -1,-1 0,0 -1,0 -2,0l0 0 0 8 -4 0zm4 -11l2 0c2,0 3,0 3,0 1,0 1,0 1,-1 1,0 1,0 1,-1 0,0 0,-1 -1,-1 0,-1 0,-1 -1,-1 0,0 -1,0 -3,0l-2 0 0 4zm30 11l-4 0 -2 -4 -7 0 -1 4 -4 0 7 -18 4 0 7 18zm-7 -7l-2 -7 -3 7 5 0zm9 7l0 -18 3 0 7 12 0 -12 4 0 0 18 -4 0 -7 -12 0 12 -3 0zm23 -6l4 0c0,1 0,2 1,2 1,1 2,1 3,1 1,0 2,0 2,-1 1,0 1,-1 1,-1 0,-1 0,-1 0,-2 0,0 -1,0 -2,0 0,0 -1,-1 -2,-1 -2,-1 -4,-1 -4,-2 -1,-1 -2,-2 -2,-3 0,-1 0,-2 1,-3 0,-1 1,-1 2,-2 1,0 2,0 3,0 3,0 4,0 5,1 2,1 2,2 2,4l-3 0c-1,-1 -1,-1 -1,-2 -1,0 -2,0 -3,0 -1,0 -1,0 -2,0 0,1 -1,1 -1,1 0,1 1,1 1,1 0,1 1,1 3,2 2,0 3,0 4,1 1,0 2,1 2,2 0,0 1,1 1,3 0,1 -1,1 -1,2 -1,1 -1,2 -3,2 -1,1 -2,1 -3,1 -3,0 -4,-1 -6,-2 -1,-1 -1,-2 -2,-4zm18 6l0 -18 13 0 0 3 -10 0 0 4 9 0 0 3 -9 0 0 5 10 0 0 3 -13 0zm28 -7l3 1c-1,2 -1,4 -3,5 -1,0 -2,1 -4,1 -3,0 -5,-1 -6,-2 -2,-2 -2,-4 -2,-7 0,-3 0,-5 2,-7 1,-2 3,-2 6,-2 2,0 4,0 5,2 1,0 2,1 2,3l-4 1c0,-1 0,-2 -1,-3 -1,0 -1,0 -2,0 -2,0 -3,0 -4,1 0,1 -1,3 -1,5 0,2 1,4 1,4 1,1 2,2 4,2 1,0 1,0 2,-1 1,-1 1,-2 2,-3zm10 7l0 -15 -5 0 0 -3 14 0 0 3 -5 0 0 15 -4 0zm11 0l0 -18 4 0 0 18 -4 0zm6 -9c0,-2 1,-3 1,-5 0,-1 1,-1 2,-2 0,-1 1,-1 2,-2 1,0 2,0 4,0 2,0 4,0 6,2 2,2 2,4 2,7 0,3 0,5 -2,7 -1,1 -4,2 -6,2 -3,0 -5,-1 -6,-2 -2,-2 -3,-4 -3,-7zm4 0c0,2 0,3 1,4 1,1 2,2 4,2 1,0 2,-1 3,-2 1,-1 2,-2 2,-4 0,-2 -1,-4 -2,-5 -1,-1 -2,-1 -3,-1 -2,0 -3,0 -4,1 -1,1 -1,3 -1,5zm16 9l0 -18 4 0 7 12 0 -12 3 0 0 18 -3 0 -8 -12 0 12 -3 0z"/>
 </g>
</svg>
