<?xml version="1.0" encoding="UTF-8"?>
<!DOCTYPE svg PUBLIC "-//W3C//DTD SVG 1.1//EN" "http://www.w3.org/Graphics/SVG/1.1/DTD/svg11.dtd">
<!-- Creator: CorelDRAW X7 -->
<svg xmlns="http://www.w3.org/2000/svg" xml:space="preserve" width="178px" height="100px" version="1.1" style="shape-rendering:geometricPrecision; text-rendering:geometricPrecision; image-rendering:optimizeQuality; fill-rule:evenodd; clip-rule:evenodd"
viewBox="0 0 208 116"
 xmlns:xlink="http://www.w3.org/1999/xlink">
 <defs>
  <style type="text/css">
   <![CDATA[
    .fil0 {fill:#0070A7}
   ]]>
  </style>
 </defs>
 <g id="Layer_x0020_1">
  <metadata id="CorelCorpID_0Corel-Layer"/>
  <path class="fil0" d="M11 73l-4 7c0,0 1,0 1,0l2 0c0,0 1,0 1,0l0 -7zm3 13c-1,0 -2,0 -2,0l0 0c-1,-1 -1,-1 -1,-2l0 -2c0,0 -1,0 -2,0l-1 0c0,0 -1,0 -2,0l-1 1c0,1 -1,2 -1,3l0 0 0 0c-1,0 -2,0 -2,0l0 0c0,-1 5,-10 7,-14l1 0c1,0 2,0 2,0l1 0c0,1 0,9 1,14l0 0z"/>
  <path class="fil0" d="M24 77c0,0 -1,0 -1,0 -3,0 -4,1 -5,3 0,0 0,1 0,2 0,2 0,3 2,3 1,0 2,-1 2,-1l2 -7zm0 9c-1,0 -1,0 -2,0l0 0 0 -1c-1,1 -1,1 -3,1 -2,0 -4,-1 -4,-4 0,-1 1,-2 1,-3 2,-3 5,-4 7,-4 0,0 1,0 1,1 1,-4 1,-5 1,-6l0 0c1,0 2,0 3,0l0 0c-1,4 -3,13 -4,16l0 0z"/>
  <path class="fil0" d="M31 86c0,0 -1,0 -2,0l0 0c0,-2 -1,-8 -1,-10l0 0c1,0 1,0 2,0l0 0c0,1 0,2 0,3l1 6c3,-7 4,-8 4,-9l1 0 0 0c1,0 1,0 1,0l0 0c0,1 -1,2 -2,3l-1 3c-1,2 -2,3 -2,4l-1 0z"/>
  <path class="fil0" d="M42 85c0,0 1,-1 2,-1 0,-2 1,-5 1,-7 0,0 0,0 0,0 -2,0 -4,1 -5,3 -1,0 -1,1 -1,2 0,2 1,3 3,3zm4 1l-1 0c-1,0 -1,0 -1,0l-1 0 1 -1c-1,1 -2,1 -3,1 -3,0 -4,-1 -4,-4 0,-1 0,-3 1,-3 2,-3 5,-3 7,-3 1,0 3,0 3,0l0 0c-2,7 -2,8 -2,10l0 0z"/>
  <path class="fil0" d="M57 86c0,0 -1,0 -2,0l0 0c0,-1 1,-2 1,-3l1 -3c0,0 0,-1 0,-1 0,-2 -2,-2 -2,-2 -1,0 -2,1 -3,1 0,3 -1,5 -1,8l0 0c-1,0 -2,0 -3,0l0 0c1,-3 2,-8 2,-10l1 0c0,0 1,0 2,-1l0 1 0 1c1,-2 3,-2 3,-2 1,0 3,0 3,3 0,1 0,2 -1,4l0 1c0,1 0,2 0,3l-1 0z"/>
  <path class="fil0" d="M68 86c-1,0 -2,0 -3,0 -2,0 -4,-2 -4,-4 0,-2 0,-4 3,-6 1,-1 2,-1 3,-1 1,0 2,1 3,1l0 0c0,1 0,1 -1,2l0 0c0,-1 -1,-1 -2,-1 -3,0 -4,3 -4,5 0,2 2,3 3,3 0,0 1,0 2,-1l0 0c0,1 0,1 0,2l0 0z"/>
  <path class="fil0" d="M75 73c-1,0 -2,0 -3,0l0 0c1,-1 1,-1 1,-2l0 0c1,0 1,0 2,-1l0 1c0,0 0,1 0,2l0 0zm-3 13c-1,0 -2,0 -2,0l-1 0c1,-2 3,-9 3,-10l0 0c1,0 1,0 2,-1l0 1c0,0 -2,7 -2,10l0 0z"/>
  <path class="fil0" d="M84 86c-1,0 -2,0 -3,0l0 0c1,-1 1,-2 1,-3l1 -3c0,0 0,-1 0,-1 0,-2 -1,-2 -2,-2 -1,0 -2,1 -2,1 -1,3 -2,5 -2,8l0 0c-1,0 -2,0 -2,0l0 0c0,-3 1,-8 2,-10l0 0c1,0 1,0 2,-1l0 1 0 1c1,-2 3,-2 3,-2 1,0 3,0 3,3 0,1 0,2 0,4l-1 1c0,1 0,2 0,3l0 0z"/>
  <path class="fil0" d="M95 77c0,0 0,0 0,0 -2,0 -4,0 -5,3 -1,1 -1,2 -1,2 0,2 1,3 2,3 2,0 2,-1 3,-1l1 -7zm3 -1c-1,2 -1,4 -2,6l0 3c-1,4 -2,6 -6,6 -1,0 -3,0 -4,-1l0 0c0,-1 0,-1 1,-2l0 0c0,1 1,2 3,2 3,0 3,-3 3,-4l1 0c-2,0 -3,0 -3,0 -3,0 -4,-1 -4,-4 0,0 0,-2 1,-3 2,-3 5,-3 7,-3 1,0 3,0 3,0l0 0z"/>
  <path class="fil0" d="M109 86c-1,0 -1,0 -2,0l0 0c0,-2 3,-11 3,-13 -2,0 -3,1 -4,1l0 -1c0,0 0,-1 0,-1l0 0c1,0 3,0 4,0 1,0 5,0 7,0l0 0c-1,0 -1,1 -1,1l0 1c-1,-1 -2,-1 -4,-1 0,2 0,3 -1,4l-1 5c0,1 0,3 -1,4l0 0z"/>
  <path class="fil0" d="M121 80c1,-1 1,-1 1,-1 0,-2 -2,-2 -3,-2 -2,0 -3,2 -3,3 0,0 4,0 5,0zm1 6c-1,0 -2,0 -4,0 -3,0 -4,-2 -4,-4 0,-4 2,-7 5,-7 3,0 5,1 5,4 0,1 -1,2 -1,2l0 0c-1,0 -3,0 -5,0 -1,0 -1,0 -2,0 0,0 0,1 0,1 0,3 2,3 3,3 2,0 2,-1 3,-1l0 0c0,0 0,1 0,2l0 0z"/>
  <path class="fil0" d="M132 86c-1,0 -2,0 -3,0 -3,0 -4,-2 -4,-4 0,-2 0,-4 3,-6 1,-1 2,-1 3,-1 1,0 2,1 3,1l0 0c0,1 -1,1 -1,2l0 0c0,-1 -1,-1 -2,-1 -3,0 -4,3 -4,5 0,2 2,3 3,3 0,0 1,0 2,-1l0 0c0,1 0,1 0,2l0 0z"/>
  <path class="fil0" d="M142 86c0,0 -1,0 -2,0l0 0c0,-1 1,-1 1,-2l0 -3c1,0 1,-2 1,-2 0,-2 -1,-2 -2,-2 -1,0 -2,1 -3,1l0 4c-1,1 -1,3 -1,4l0 0c-1,0 -2,0 -2,0l-1 0c1,-1 3,-13 4,-16l0 0c1,0 1,0 2,0l0 0c0,2 -1,4 -1,7 0,-1 2,-2 3,-2 1,0 3,0 3,3 0,1 0,2 0,3l-1 2c0,1 0,2 0,3l-1 0z"/>
  <path class="fil0" d="M154 86c0,0 -1,0 -2,0l0 0c0,-1 1,-2 1,-3l0 -3c1,0 1,-1 1,-1 0,-2 -2,-2 -2,-2 -1,0 -2,1 -3,1 0,3 -1,5 -1,8l-1 0c0,0 -1,0 -2,0l0 0c1,-3 2,-8 2,-10l1 0c0,0 1,0 2,-1l0 1 0 1c1,-2 3,-2 3,-2 1,0 3,0 3,3 0,1 0,2 -1,4l0 1c0,1 0,2 -1,3l0 0z"/>
  <path class="fil0" d="M162 85c3,0 4,-5 4,-6 0,-2 -2,-2 -3,-2 -2,0 -3,4 -3,6 0,1 0,2 2,2zm1 -10c3,0 5,2 5,4 0,3 -1,7 -6,7 -1,0 -4,0 -4,-4 0,-3 1,-7 5,-7z"/>
  <path class="fil0" d="M171 86c-1,0 -1,0 -2,0l0 0c0,-1 2,-10 3,-16l0 0c1,0 1,0 2,0l0 0c-1,4 -3,14 -3,16l0 0z"/>
  <path class="fil0" d="M178 85c3,0 4,-5 4,-6 0,-2 -1,-2 -2,-2 -3,0 -4,4 -4,6 0,1 1,2 2,2zm2 -10c2,0 4,2 4,4 0,3 -1,7 -6,7 -1,0 -4,0 -4,-4 0,-3 2,-7 6,-7z"/>
  <path class="fil0" d="M194 77c0,0 -1,0 -1,0 -2,0 -4,0 -5,3 0,1 0,2 0,2 0,2 1,3 2,3 1,0 2,-1 2,-1l2 -7zm3 -1c-1,2 -2,4 -2,6l-1 3c0,4 -1,6 -5,6 -2,0 -4,0 -5,-1l0 0c1,-1 1,-1 1,-2l0 0c1,1 2,2 3,2 3,0 4,-3 4,-4l0 0c-1,0 -2,0 -3,0 -2,0 -4,-1 -4,-4 0,0 1,-2 2,-3 2,-3 5,-3 7,-3 1,0 2,0 2,0l1 0z"/>
  <path class="fil0" d="M208 76c-3,4 -9,13 -9,15l-1 0 0 0c-1,0 -1,0 -2,0l0 0c1,-1 3,-4 3,-5 0,-5 -1,-10 -1,-10l0 0c1,0 1,0 2,-1l0 1c0,1 0,2 1,3l0 4 2 -3c1,-1 2,-3 2,-4l1 0c0,0 0,0 0,0 1,0 1,0 2,0l0 0z"/>
  <path class="fil0" d="M78 111c-1,1 -1,1 -2,1l0 -1c0,-3 0,-1 2,-9 -1,0 -1,0 -2,0l0 0c0,0 0,-1 0,-1l1 0c0,0 1,0 1,0l0 -2c1,-2 1,-4 4,-4 1,0 1,0 2,0l0 1c0,0 -1,1 -1,1l0 0c0,0 0,0 -1,0 -1,0 -1,1 -2,3l0 1 1 0c0,0 1,0 1,0l0 0c0,0 0,1 0,1l0 0c-1,0 -1,0 -2,0 -1,4 -1,6 -2,9l0 0z"/>
  <path class="fil0" d="M86 110c3,0 4,-5 4,-5 0,-2 -2,-3 -2,-3 -3,0 -4,4 -4,6 0,1 1,2 2,2zm1 -9c3,0 5,1 5,4 0,2 -1,7 -6,7 -1,0 -4,-1 -4,-4 0,-4 2,-7 5,-7z"/>
  <path class="fil0" d="M95 111c-1,0 -1,1 -2,1l0 -1c1,-3 2,-8 2,-10l0 0c1,0 2,0 2,0l0 0c0,0 0,1 0,2 0,-1 1,-2 3,-2 0,0 0,0 1,0l0 0c-1,1 -1,1 -1,2l0 0c-1,0 -1,0 -1,0 -1,0 -2,0 -3,3 0,0 -1,4 -1,5l0 0z"/>
  <path class="fil0" d="M117 111c0,0 -1,1 -2,1l0 -1c1,-2 1,-4 2,-6 -1,-1 -2,-1 -3,-1l-2 0c-1,0 -1,0 -2,1 -1,2 -1,4 -2,6l0 0c-1,0 -1,0 -2,1l0 -1c0,-1 3,-11 3,-14l0 0c1,0 2,0 2,0l1 0c-1,3 -1,2 -2,6 0,0 1,0 2,0 1,0 4,0 5,0 1,-4 1,-5 1,-6l0 0c1,0 2,0 2,0l1 0c-2,6 -3,12 -4,14l0 0z"/>
  <path class="fil0" d="M129 111c-1,0 -1,1 -2,1l0 -1 0 -1c-1,1 -2,2 -3,2 -3,0 -3,-2 -3,-3 0,-1 0,-2 0,-3l1 -2c0,-1 0,-2 0,-3l1 0c0,0 1,0 2,0l0 0c-1,3 -2,6 -2,7 0,1 0,2 2,2 1,0 2,0 3,-1 1,-5 1,-7 1,-8l0 0c1,0 2,0 3,0l0 0c-1,2 -2,9 -3,10l0 0z"/>
  <path class="fil0" d="M147 111c-1,0 -1,1 -2,1l0 -1c0,-1 1,-2 1,-3l0 -2c1,-1 1,-2 1,-2 0,-2 -2,-2 -2,-2 -1,0 -2,1 -3,1 0,1 0,2 0,3l-1 2c0,1 0,2 0,3l0 0c-1,0 -2,1 -2,1l0 -1c0,-1 1,-6 1,-7 0,-2 -1,-2 -1,-2 -2,0 -3,1 -3,1l-1 3c0,2 0,4 -1,5l0 0c0,0 -1,0 -2,1l0 -1c1,-3 2,-8 2,-10l0 0c1,0 2,0 3,0l0 0 -1 1c1,-1 2,-1 4,-1 0,0 2,0 2,1 2,-1 4,-1 4,-1 2,0 3,0 3,2 0,1 0,2 0,2l-1 2c0,2 0,3 -1,4l0 0z"/>
  <path class="fil0" d="M155 110c1,0 2,0 2,-1 1,-2 1,-4 2,-7 0,0 -1,0 -1,0 -2,0 -4,1 -5,3 0,1 0,1 0,2 0,2 0,3 2,3zm4 1l-1 0c0,0 0,1 -1,1l0 -1 0 0c-1,0 -2,1 -3,1 -2,0 -4,-2 -4,-4 0,-2 1,-3 1,-4 2,-3 5,-3 7,-3 1,0 3,0 3,0l0 0c-1,7 -2,8 -2,10l0 0z"/>
  <path class="fil0" d="M171 111c-1,0 -1,1 -2,1l0 -1c0,-1 0,-2 1,-3l0 -3c0,0 0,-1 0,-1 0,-2 -1,-2 -1,-2 -2,0 -3,1 -3,1 -1,3 -1,6 -2,8l0 0c-1,0 -1,1 -2,1l0 -1c0,-2 2,-8 2,-10l0 0c1,0 1,0 2,0l0 0 0 1c2,-1 3,-1 4,-1 0,0 3,0 3,2 0,1 -1,2 -1,4l0 2c-1,1 -1,1 -1,2l0 0z"/>
  <path class="fil0" d="M179 98c-1,0 -2,0 -2,0l0 0c0,-1 0,-1 0,-2l0 0c1,0 2,0 2,0l0 0c0,1 0,1 0,2l0 0zm-3 13c-1,0 -1,0 -2,1l0 -1c0,-2 2,-9 2,-10l0 0c1,0 1,0 2,0l0 0c0,0 -1,8 -2,10l0 0z"/>
  <path class="fil0" d="M183 111c0,1 -1,1 -1,1 -2,0 -3,-1 -3,-2 0,-1 1,-3 1,-5l1 -3 -1 0c0,0 0,0 -1,0l0 0c0,0 0,-1 1,-1l0 0c0,0 1,0 1,0 0,-1 1,-2 1,-3l0 0c1,0 1,0 2,0l0 0c0,0 0,1 0,1l-1 2c1,0 2,0 3,0l0 0c-1,0 -1,1 -1,1l0 0c-1,0 -1,0 -2,0l-1 5c0,0 -1,2 -1,2 0,1 1,1 1,1 1,0 1,0 2,0l0 0c0,0 -1,1 -1,1l0 0z"/>
  <path class="fil0" d="M196 101c-3,4 -9,14 -9,15l0 0 -1 0c-1,0 -1,0 -2,0l0 0c1,-1 3,-4 3,-5 0,-5 -1,-10 -1,-10l0 0c1,0 1,0 2,0l0 0c0,1 0,2 1,3l0 5 2 -4c1,-1 2,-3 2,-4l1 0c0,0 0,0 0,0 1,0 1,0 2,0l0 0z"/>
  <polygon class="fil0" points="69,54 69,8 82,8 82,54 "/>
  <polygon class="fil0" points="89,54 89,8 124,8 124,17 101,17 101,26 122,26 122,35 101,35 101,45 124,45 124,54 "/>
  <polygon class="fil0" points="131,54 131,8 166,8 166,17 143,17 143,26 164,26 164,35 143,35 143,45 166,45 166,54 "/>
  <polygon class="fil0" points="173,54 173,8 208,8 208,17 185,17 185,26 206,26 206,35 185,35 185,45 208,45 208,54 "/>
  <path class="fil0" d="M29 36c0,3 0,6 0,9 1,0 2,0 4,0l-1 -9 0 0c-1,0 -2,0 -3,0l0 0zm-8 -10c-2,1 -4,2 -4,5 1,1 2,2 3,2 6,2 13,3 19,1 1,-1 3,-2 4,-3 0,-2 -2,-3 -3,-3l0 0c0,-1 1,-1 1,-1l0 0c-2,0 -4,-1 -6,-1 1,1 1,2 1,2 1,0 1,0 2,0 1,0 3,1 3,2 0,1 -2,2 -2,2 -5,2 -10,2 -14,1 -1,0 -3,-1 -3,-3 1,-2 3,-2 5,-3 -1,0 -2,-1 -3,-1 -1,0 -2,0 -3,0zm10 -12l-1 2 -3 8c1,0 2,0 2,0l0 0 0 9 0 0c1,0 2,0 3,0l0 0 0 -9 0 0 2 0c-1,-4 -2,-7 -3,-10l0 0zm-2 -4c2,-2 4,0 6,1 6,5 12,11 16,18 1,0 1,2 1,3 -2,2 -3,3 -5,5l0 0c-3,4 -7,8 -11,12 -2,1 -4,4 -7,2 -6,-5 -12,-10 -17,-16 0,-1 -2,-2 -2,-4 -1,-2 1,-3 2,-5 5,-6 11,-12 17,-16zm5 -6l-2 -3c0,-1 0,-1 -1,-1 0,0 0,0 0,0l0 0c-1,0 -1,0 -2,1l-4 5c-7,8 -14,16 -23,22 -1,0 -2,1 -2,2 0,1 0,1 1,2 7,4 13,10 19,16 1,2 2,3 3,4 2,2 4,4 5,7 1,0 1,1 2,1 0,1 1,1 2,0l0 0c7,-10 16,-19 26,-27 1,-1 3,-1 3,-3 0,0 0,-1 -1,-2l0 0c-5,-3 -10,-7 -15,-12l-5 -5c-2,-2 -4,-5 -6,-7zm-6 5c3,-2 5,-1 7,1 2,1 3,3 5,4l0 0c5,5 9,9 13,14 0,1 1,2 0,3 -1,3 -3,5 -5,8 -5,5 -9,9 -15,13 -1,1 -2,1 -3,1 -4,-2 -7,-6 -11,-9 -4,-3 -8,-7 -11,-12 0,-1 0,-1 0,-2 0,-2 1,-3 2,-4 4,-5 8,-9 12,-13 1,0 1,0 1,0 2,-2 4,-3 5,-4z"/>
  <path class="fil0" d="M41 56l0 0 0 -1 0 0c0,0 0,0 0,1 0,0 0,0 0,0zm1 0c0,-1 0,-1 -1,-1l-1 0 0 2 1 0 0 -1 0 0 0 1 1 0 -1 -1c1,0 1,0 1,0zm-1 2l0 0c-1,0 -2,-1 -2,-2 0,-1 1,-1 2,-1 1,0 1,0 1,1 0,1 0,2 -1,2zm0 -4c-1,0 -2,1 -2,2 0,2 1,2 2,2 1,0 2,0 2,-2 0,-1 -1,-2 -2,-2z"/>
 </g>
</svg>
