<?xml version="1.0" encoding="UTF-8"?>
<!DOCTYPE svg PUBLIC "-//W3C//DTD SVG 1.1//EN" "http://www.w3.org/Graphics/SVG/1.1/DTD/svg11.dtd">
<!-- Creator: CorelDRAW X7 -->
<svg xmlns="http://www.w3.org/2000/svg" xml:space="preserve" width="267px" height="100px" version="1.1" style="shape-rendering:geometricPrecision; text-rendering:geometricPrecision; image-rendering:optimizeQuality; fill-rule:evenodd; clip-rule:evenodd"
viewBox="0 0 172 64"
 xmlns:xlink="http://www.w3.org/1999/xlink">
 <defs>
  <style type="text/css">
   <![CDATA[
    .fil0 {fill:#0070A7}
    .fil1 {fill:#0070A7;fill-rule:nonzero}
   ]]>
  </style>
 </defs>
 <g id="Layer_x0020_1">
  <metadata id="CorelCorpID_0Corel-Layer"/>
  <polygon class="fil0" points="74,40 74,7 83,7 83,40 "/>
  <polygon class="fil0" points="88,40 88,7 112,7 112,14 97,14 97,20 111,20 111,27 97,27 97,34 112,34 112,40 "/>
  <polygon class="fil0" points="117,40 117,7 142,7 142,14 126,14 126,20 141,20 141,27 126,27 126,34 142,34 142,40 "/>
  <polygon class="fil0" points="147,40 147,7 172,7 172,14 156,14 156,20 171,20 171,27 156,27 156,34 172,34 172,40 "/>
  <path class="fil0" d="M31 38c0,3 0,7 -1,10 2,0 3,0 5,0l-1 -10 0 0c-1,0 -2,0 -3,0l0 0zm-9 -10c-1,1 -4,2 -4,5 1,1 2,2 3,2 6,3 14,3 20,1 2,-1 4,-2 4,-3 0,-2 -1,-3 -3,-4l0 0c1,0 1,0 2,0l0 0c-2,0 -4,-1 -6,-2 0,1 0,2 1,3 0,0 1,0 2,0 1,0 2,1 2,2 0,1 -1,2 -2,3 -4,1 -10,1 -14,0 -2,0 -4,-1 -4,-3 1,-2 4,-2 6,-3 -1,0 -3,-1 -4,-2 -1,0 -2,1 -3,1zm11 -13l-1 2 -3 8c1,0 2,0 2,0l0 0 0 10 0 0c1,0 2,0 3,0l0 0 0 -9 0 -1 2 0c-1,-3 -2,-7 -3,-10l0 0zm-2 -5c2,-1 4,1 6,2 7,6 13,12 18,18 0,1 1,3 0,4 -1,2 -3,4 -4,6l0 0c-4,4 -9,8 -13,12 -2,1 -4,4 -7,2 -6,-5 -13,-10 -18,-17 -1,-1 -2,-2 -3,-4 -1,-2 1,-3 2,-5 6,-6 12,-13 19,-18zm6 -6l-3 -3c0,0 0,-1 -1,-1 0,0 0,0 0,0l0 0c-1,0 -1,0 -2,1l-4 5c-7,9 -16,17 -25,24 -1,0 -2,1 -2,2 0,1 0,1 1,2 7,5 14,11 20,18 1,1 2,2 3,3 2,2 4,5 6,8 1,0 1,1 2,1 0,0 1,1 2,0l0 0c8,-11 17,-21 28,-29 1,-1 3,-1 3,-3 0,0 0,-1 -1,-2l0 0c-6,-4 -11,-8 -16,-13l-5 -5c-2,-3 -4,-5 -6,-8zm-7 5c3,-2 5,0 7,1 2,2 4,3 6,5l0 0c5,5 9,10 13,15 1,1 1,2 1,3 -1,3 -4,6 -6,8 -5,5 -10,10 -15,14 -2,1 -3,2 -4,1 -4,-2 -8,-6 -11,-9 -5,-4 -9,-8 -12,-13 0,0 -1,-1 -1,-2 1,-2 2,-3 3,-4 4,-5 8,-10 13,-14 0,0 0,0 0,0 2,-2 4,-3 6,-5z"/>
  <path class="fil0" d="M44 60l-1 0 0 -1 1 0c0,0 0,0 0,0 0,1 0,1 0,1zm1 -1c0,0 -1,0 -1,0l-1 0 0 2 0 0 0 -1 0 0 1 1 1 0 -1 -1c0,0 1,0 1,-1zm-1 3l0 0c-1,0 -2,-1 -2,-2 0,-1 1,-2 2,-2 0,0 1,1 1,2 0,1 -1,2 -1,2zm0 -4c-2,0 -3,0 -3,2 0,1 1,2 3,2 1,0 2,-1 2,-2 0,-2 -1,-2 -2,-2z"/>
  <path class="fil1" d="M74 54l0 -10 2 0 0 10 -2 0zm4 0l0 -10 4 0c1,0 2,0 2,1 1,0 1,0 1,1 1,0 1,1 1,1 0,1 0,2 -1,2 0,0 -1,1 -2,1 1,0 1,0 1,1 1,0 1,1 1,1l2 2 -3 0 -1 -2c-1,-1 -1,-1 -1,-1 0,-1 -1,-1 -1,-1 0,0 0,0 -1,0l0 0 0 4 -2 0zm2 -5l1 0c1,0 2,0 2,-1 0,0 0,0 1,0 0,0 0,0 0,-1 0,0 0,0 0,-1 -1,0 -1,0 -1,0 0,0 -1,0 -2,0l-1 0 0 3zm17 5l-2 0 -1 -2 -4 0 -1 2 -2 0 4 -10 2 0 4 10zm-4 -4l-1 -3 -2 3 3 0zm5 4l0 -10 2 0 4 7 0 -7 2 0 0 10 -2 0 -4 -6 0 6 -2 0zm13 -3l2 0c1,1 1,1 1,1 0,1 1,1 2,1 0,0 1,0 1,-1 0,0 1,0 1,-1 0,0 -1,0 -1,0 0,0 0,0 0,-1 -1,0 -1,0 -2,0 -1,0 -2,-1 -2,-1 -1,-1 -1,-1 -1,-2 0,-1 0,-1 0,-2 1,0 1,0 1,-1 1,0 2,0 2,0 2,0 3,0 3,1 1,1 1,1 1,2l-2 0c0,0 0,-1 0,-1 -1,0 -1,0 -2,0 0,0 -1,0 -1,0 0,0 0,1 0,1 0,0 0,0 0,0 0,1 1,1 2,1 1,0 2,1 2,1 1,0 1,0 1,1 0,0 1,1 1,1 0,1 -1,2 -1,2 0,1 -1,1 -1,1 -1,0 -2,1 -2,1 -2,0 -3,-1 -3,-1 -1,-1 -1,-2 -2,-3zm10 3l0 -10 8 0 0 2 -6 0 0 2 5 0 0 2 -5 0 0 3 6 0 0 1 -8 0zm16 -3l2 0c0,1 -1,2 -1,3 -1,0 -2,1 -3,1 -1,0 -3,-1 -3,-2 -1,-1 -2,-2 -2,-4 0,-1 1,-3 2,-3 0,-1 2,-2 3,-2 1,0 2,0 3,1 0,1 1,1 1,2l-2 1c0,-1 0,-1 -1,-2 0,0 -1,0 -1,0 -1,0 -1,0 -2,1 0,0 -1,1 -1,2 0,2 1,2 1,3 1,1 1,1 2,1 0,0 1,0 1,-1 1,0 1,-1 1,-1zm6 3l0 -8 -3 0 0 -2 8 0 0 2 -3 0 0 8 -2 0zm6 0l0 -10 2 0 0 10 -2 0zm4 -5c0,-1 0,-1 0,-2 0,-1 1,-1 1,-2 1,0 1,0 2,0 0,-1 1,-1 2,-1 1,0 2,1 3,2 1,0 2,2 2,3 0,2 -1,3 -2,4 -1,1 -2,2 -3,2 -2,0 -3,-1 -4,-2 -1,-1 -1,-2 -1,-4zm2 0c0,1 0,2 1,3 0,1 1,1 2,1 1,0 1,0 2,-1 0,-1 0,-2 0,-3 0,-1 0,-2 0,-2 -1,-1 -1,-1 -2,-1 -1,0 -2,0 -2,1 -1,0 -1,1 -1,2zm9 5l0 -10 2 0 4 7 0 -7 2 0 0 10 -2 0 -4 -6 0 6 -2 0z"/>
 </g>
</svg>
