<?xml version="1.0" encoding="UTF-8"?>
<!DOCTYPE svg PUBLIC "-//W3C//DTD SVG 1.1//EN" "http://www.w3.org/Graphics/SVG/1.1/DTD/svg11.dtd">
<!-- Creator: CorelDRAW X7 -->
<svg xmlns="http://www.w3.org/2000/svg" xml:space="preserve" width="440px" height="100px" version="1.1" style="shape-rendering:geometricPrecision; text-rendering:geometricPrecision; image-rendering:optimizeQuality; fill-rule:evenodd; clip-rule:evenodd"
viewBox="0 0 517 118"
 xmlns:xlink="http://www.w3.org/1999/xlink">
 <defs>
  <style type="text/css">
   <![CDATA[
    .fil1 {fill:#FEFEFE;fill-rule:nonzero}
    .fil4 {fill:#2B2A29;fill-rule:nonzero}
    .fil0 {fill:#6A982C;fill-rule:nonzero}
    .fil2 {fill:#20642B;fill-rule:nonzero}
    .fil3 {fill:#045029;fill-rule:nonzero}
   ]]>
  </style>
 </defs>
 <g id="Layer_x0020_1">
  <metadata id="CorelCorpID_0Corel-Layer"/>
  <path class="fil0" d="M84 99c0,7 -5,12 -12,12l-60 0c-7,0 -12,-5 -12,-12l0 -88c0,-6 5,-11 12,-11l58 0 14 14 0 85z"/>
  <path class="fil1" d="M79 94c0,8 -2,12 -12,12l-50 0c-10,0 -12,-4 -12,-12l0 -77c0,-9 2,-12 12,-12l48 0 0 14 14 0 0 75z"/>
  <polygon class="fil0" points="73,27 10,27 10,26 73,26 "/>
  <polygon class="fil0" points="73,95 10,95 10,94 73,94 "/>
  <polygon class="fil0" points="73,78 10,78 10,77 73,77 "/>
  <polygon class="fil0" points="73,61 10,61 10,60 73,60 "/>
  <polygon class="fil0" points="73,44 10,44 10,43 73,43 "/>
  <path class="fil2" d="M45 118l-7 -7 10 0c-1,2 -2,4 -3,7l0 0zm39 -56l0 -2c2,-2 4,-3 6,-4 -2,2 -4,4 -6,6z"/>
  <path class="fil3" d="M48 111l-10 0 -4 -5 17 0c-1,1 -2,3 -3,5zm31 -44l0 -4c1,-1 3,-2 5,-3l0 2c-2,2 -4,3 -5,5z"/>
  <path class="fil2" d="M51 106l-17 0 -9 -11 2 0 14 8c2,-3 5,-5 7,-8l9 0c-2,3 -4,7 -6,11zm7 -12l-10 0c5,-6 10,-11 14,-16l7 0c-4,5 -8,11 -11,16zm-33 0l-1 0 -1 -1 2 1zm45 -17l-7 0c6,-5 11,-10 16,-14l0 4c-3,3 -6,7 -9,10z"/>
  <path class="fil3" d="M57 95l-9 0c0,0 0,-1 0,-1l10 0c0,0 0,1 -1,1zm-30 0l-2 0 -1 -1 1 0 2 1z"/>
  <path class="fil3" d="M69 78l-7 0c1,0 1,-1 1,-1l7 0c0,0 0,1 -1,1z"/>
  <path class="fil4" d="M130 45c-5,0 -7,0 -13,0l0 0c0,-6 0,-11 0,-16 0,-3 0,-7 0,-10 0,-5 0,-9 0,-16l0 0c6,0 7,0 13,0l0 0c0,6 0,10 0,16 0,9 0,17 1,26l-1 0z"/>
  <path class="fil4" d="M152 28l0 8c4,0 9,0 15,-1l0 1 0 8 -1 1c-8,0 -9,0 -11,0 -7,0 -10,0 -16,0l0 0c0,-7 0,-11 0,-19 0,-14 0,-16 0,-23l0 0 27 0 0 0 0 9 -1 0 -13 0 0 7 13 0 0 0 0 8 -1 1 -12 0z"/>
  <path class="fil4" d="M186 28l0 8c5,0 9,0 15,-1l0 1 0 8 -1 1c-8,0 -9,0 -11,0 -7,0 -10,0 -15,0l-1 0c0,-7 0,-11 0,-19 0,-14 0,-16 0,-23l0 0 27 0 0 0 0 9 0 0 -14 0 0 7 13 0 0 0 0 8 -1 1 -12 0z"/>
  <path class="fil4" d="M220 28l0 8c5,0 9,0 15,-1l0 1 0 8 -1 1c-8,0 -9,0 -11,0 -6,0 -10,0 -15,0l-1 0c1,-7 1,-11 1,-19 0,-14 -1,-16 -1,-23l1 0 26 0 0 0 0 9 0 0 -14 0 0 7 13 0 0 0 0 8 -1 1 -12 0z"/>
  <path class="fil2" d="M134 80c3,0 10,0 10,-7 0,-4 -1,-6 -6,-6 -1,0 -3,0 -4,0l0 13zm0 10c0,9 0,11 1,20l-1 0 -16 0 0 0c0,-10 0,-20 0,-30 0,-12 0,-16 0,-24l0 0 14 0 4 0c7,0 14,0 19,3 2,2 5,6 5,13 0,3 -1,6 -2,8 -2,4 -5,5 -7,7l7 13 5 9 0 1 -17 0 0 0 -4 -10 -5 -10 -3 0z"/>
  <path class="fil2" d="M190 85c0,-2 0,-7 -5,-7 0,0 -1,0 -2,0 -3,2 -3,5 -3,7l10 0zm-10 8c1,3 1,4 4,6 1,1 3,1 7,1 4,0 8,0 12,-3l0 1 0 10 -1 0c-1,1 -2,1 -2,1 -2,1 -6,2 -12,2 -4,0 -10,-1 -15,-4 -6,-4 -8,-10 -8,-17 0,-16 11,-22 21,-22 4,0 8,1 12,4 6,5 7,15 7,20l-1 1 -24 0z"/>
  <path class="fil2" d="M233 85c1,0 3,1 4,2 2,2 5,5 5,10 0,8 -7,14 -19,14 -6,0 -11,-1 -12,-2 -1,0 -2,0 -2,-1l-1 -1 1 -10 0 0c1,1 2,2 3,2 3,2 6,3 9,3 4,0 5,-3 5,-3 0,-2 -2,-3 -4,-4l-4 -1c-2,-1 -5,-2 -7,-4 -1,-2 -2,-5 -2,-8 0,-5 2,-9 5,-11 4,-3 10,-3 13,-3 5,0 8,1 12,2l1 0c-1,5 -1,6 -1,10l-1 0c-2,-1 -5,-3 -10,-3 -4,0 -4,3 -4,3 0,1 1,2 3,3l6 2z"/>
  <path class="fil2" d="M272 106c-1,1 -2,2 -3,2 -3,2 -6,3 -9,3 -5,0 -8,-2 -9,-4 -3,-4 -3,-8 -3,-16l0 -3c0,-9 0,-11 0,-18l0 -1 15 0 0 0c0,3 0,6 0,8 0,2 0,11 0,13 0,5 0,9 5,9 1,0 3,0 4,-1l0 -28 0 -1c7,0 8,0 15,0l1 0c-1,8 -1,17 -1,25 0,8 0,10 1,16l-1 0c-6,0 -8,0 -14,0l-1 0 0 -4z"/>
  <path class="fil2" d="M294 70c6,0 8,-1 15,-2l1 0 0 5c3,-2 6,-5 11,-5 6,0 8,4 9,5 2,-1 3,-2 5,-3 3,-1 6,-2 9,-2 4,0 7,2 8,3 3,3 4,7 4,11l0 2c0,11 0,14 0,26l0 0c-7,0 -9,0 -16,0l0 0c0,-7 0,-16 0,-19 0,-2 0,-7 0,-9 -1,-2 -3,-2 -4,-2 -1,0 -2,0 -3,1 0,13 0,16 0,29l0 0c-6,0 -8,0 -15,0l-1 0c0,-3 0,-16 0,-19 0,-9 -1,-11 -4,-11 -1,0 -2,0 -4,1 0,14 1,16 1,29l-1 0 -15 0 0 0c0,-17 0,-18 0,-22 0,-8 0,-12 -1,-17l1 -1z"/>
  <path class="fil2" d="M386 85c0,-2 0,-7 -5,-7 0,0 -1,0 -2,0 -3,2 -3,5 -3,7l10 0zm-10 8c1,3 1,4 4,6 1,1 3,1 7,1 4,0 8,0 12,-3l0 1 0 10 -1 0c-1,1 -1,1 -2,1 -2,1 -6,2 -12,2 -4,0 -10,-1 -15,-4 -6,-4 -8,-10 -8,-17 0,-16 11,-22 21,-22 4,0 8,1 12,4 6,5 7,15 7,20l-1 1 -24 0z"/>
  <path class="fil0" d="M438 104c-1,2 -1,3 -1,6l0 0c-14,0 -15,0 -29,0l-1 0c0,-6 1,-16 1,-29 0,-12 -1,-18 -1,-24l1 -1c4,0 4,0 8,0l1 0c-1,15 -1,33 -1,35 0,6 0,9 0,12 9,0 11,0 21,0l1 1z"/>
  <path class="fil0" d="M464 89c-8,1 -15,2 -15,9 0,0 0,7 7,7 5,0 8,-3 9,-4l0 -12 -1 0zm8 5c0,10 1,11 1,16l0 0c-4,0 -5,0 -8,0l-1 0 1 -3c-2,1 -5,4 -11,4 -8,0 -13,-5 -13,-13 0,-10 8,-13 22,-15l1 0c0,-2 0,-4 0,-5 -1,-1 -3,-3 -7,-3 -5,0 -8,2 -11,3l-1 0c0,-4 0,-4 0,-6l1 0c4,-2 9,-3 13,-3 6,0 11,2 13,8 0,2 0,7 0,10l0 7z"/>
  <path class="fil0" d="M492 104c2,0 9,1 13,-4 2,-2 4,-7 4,-11 0,-5 -2,-8 -4,-10 -2,-2 -5,-3 -7,-3 -4,0 -7,1 -9,2 0,12 0,15 1,26l2 0zm-4 6c-3,0 -4,0 -6,0l-1 0c0,-5 1,-10 1,-21l0 -11c-1,-14 -1,-19 -1,-27l0 0 8 -2 1 1 -1 23c2,-1 5,-4 11,-4 10,0 17,7 17,20 0,3 0,9 -5,14 -6,8 -16,7 -23,7l-1 0z"/>
  <path class="fil0" d="M84 99c0,7 -5,12 -12,12l-60 0c-7,0 -12,-5 -12,-12l0 -88c0,-6 5,-11 12,-11l58 0 14 14 0 85z"/>
  <path class="fil1" d="M79 94c0,8 -2,12 -12,12l-50 0c-10,0 -12,-4 -12,-12l0 -77c0,-9 2,-12 12,-12l48 0 0 14 14 0 0 75z"/>
  <polygon class="fil0" points="73,27 10,27 10,26 73,26 "/>
  <polygon class="fil0" points="73,95 10,95 10,94 73,94 "/>
  <polygon class="fil0" points="73,78 10,78 10,77 73,77 "/>
  <polygon class="fil0" points="73,61 10,61 10,60 73,60 "/>
  <polygon class="fil0" points="73,44 10,44 10,43 73,43 "/>
  <path class="fil2" d="M45 118l-7 -7 10 0c-1,2 -2,4 -3,7l0 0zm39 -56l0 -2c2,-2 4,-3 6,-4 -2,2 -4,4 -6,6z"/>
  <path class="fil3" d="M48 111l-10 0 -4 -5 17 0c-1,1 -2,3 -3,5zm31 -44l0 -4c1,-1 3,-2 5,-3l0 2c-2,2 -4,3 -5,5z"/>
  <path class="fil2" d="M51 106l-17 0 -9 -11 2 0 14 8c2,-3 5,-5 7,-8l9 0c-2,3 -4,7 -6,11zm7 -12l-10 0c5,-6 10,-11 14,-16l7 0c-4,5 -8,11 -11,16zm-33 0l-1 0 -1 -1 2 1zm45 -17l-7 0c6,-5 11,-10 16,-14l0 4c-3,3 -6,7 -9,10z"/>
  <path class="fil3" d="M57 95l-9 0c0,0 0,-1 0,-1l10 0c0,0 0,1 -1,1zm-30 0l-2 0 -1 -1 1 0 2 1z"/>
  <path class="fil3" d="M69 78l-7 0c1,0 1,-1 1,-1l7 0c0,0 0,1 -1,1z"/>
  <path class="fil4" d="M130 45c-5,0 -7,0 -13,0l0 0c0,-6 0,-11 0,-16 0,-3 0,-7 0,-10 0,-5 0,-9 0,-16l0 0c6,0 7,0 13,0l0 0c0,6 0,10 0,16 0,9 0,17 1,26l-1 0z"/>
  <path class="fil4" d="M152 28l0 8c4,0 9,0 15,-1l0 1 0 8 -1 1c-8,0 -9,0 -11,0 -7,0 -10,0 -16,0l0 0c0,-7 0,-11 0,-19 0,-14 0,-16 0,-23l0 0 27 0 0 0 0 9 -1 0 -13 0 0 7 13 0 0 0 0 8 -1 1 -12 0z"/>
  <path class="fil4" d="M186 28l0 8c5,0 9,0 15,-1l0 1 0 8 -1 1c-8,0 -9,0 -11,0 -7,0 -10,0 -15,0l-1 0c0,-7 0,-11 0,-19 0,-14 0,-16 0,-23l0 0 27 0 0 0 0 9 0 0 -14 0 0 7 13 0 0 0 0 8 -1 1 -12 0z"/>
  <path class="fil4" d="M220 28l0 8c5,0 9,0 15,-1l0 1 0 8 -1 1c-8,0 -9,0 -11,0 -6,0 -10,0 -15,0l-1 0c1,-7 1,-11 1,-19 0,-14 -1,-16 -1,-23l1 0 26 0 0 0 0 9 0 0 -14 0 0 7 13 0 0 0 0 8 -1 1 -12 0z"/>
  <path class="fil2" d="M134 80c3,0 10,0 10,-7 0,-4 -1,-6 -6,-6 -1,0 -3,0 -4,0l0 13zm0 10c0,9 0,11 1,20l-1 0 -16 0 0 0c0,-10 0,-20 0,-30 0,-12 0,-16 0,-24l0 0 14 0 4 0c7,0 14,0 19,3 2,2 5,6 5,13 0,3 -1,6 -2,8 -2,4 -5,5 -7,7l7 13 5 9 0 1 -17 0 0 0 -4 -10 -5 -10 -3 0z"/>
  <path class="fil2" d="M190 85c0,-2 0,-7 -5,-7 0,0 -1,0 -2,0 -3,2 -3,5 -3,7l10 0zm-10 8c1,3 1,4 4,6 1,1 3,1 7,1 4,0 8,0 12,-3l0 1 0 10 -1 0c-1,1 -2,1 -2,1 -2,1 -6,2 -12,2 -4,0 -10,-1 -15,-4 -6,-4 -8,-10 -8,-17 0,-16 11,-22 21,-22 4,0 8,1 12,4 6,5 7,15 7,20l-1 1 -24 0z"/>
  <path class="fil2" d="M233 85c1,0 3,1 4,2 2,2 5,5 5,10 0,8 -7,14 -19,14 -6,0 -11,-1 -12,-2 -1,0 -2,0 -2,-1l-1 -1 1 -10 0 0c1,1 2,2 3,2 3,2 6,3 9,3 4,0 5,-3 5,-3 0,-2 -2,-3 -4,-4l-4 -1c-2,-1 -5,-2 -7,-4 -1,-2 -2,-5 -2,-8 0,-5 2,-9 5,-11 4,-3 10,-3 13,-3 5,0 8,1 12,2l1 0c-1,5 -1,6 -1,10l-1 0c-2,-1 -5,-3 -10,-3 -4,0 -4,3 -4,3 0,1 1,2 3,3l6 2z"/>
  <path class="fil2" d="M272 106c-1,1 -2,2 -3,2 -3,2 -6,3 -9,3 -5,0 -8,-2 -9,-4 -3,-4 -3,-8 -3,-16l0 -3c0,-9 0,-11 0,-18l0 -1 15 0 0 0c0,3 0,6 0,8 0,2 0,11 0,13 0,5 0,9 5,9 1,0 3,0 4,-1l0 -28 0 -1c7,0 8,0 15,0l1 0c-1,8 -1,17 -1,25 0,8 0,10 1,16l-1 0c-6,0 -8,0 -14,0l-1 0 0 -4z"/>
  <path class="fil2" d="M294 70c6,0 8,-1 15,-2l1 0 0 5c3,-2 6,-5 11,-5 6,0 8,4 9,5 2,-1 3,-2 5,-3 3,-1 6,-2 9,-2 4,0 7,2 8,3 3,3 4,7 4,11l0 2c0,11 0,14 0,26l0 0c-7,0 -9,0 -16,0l0 0c0,-7 0,-16 0,-19 0,-2 0,-7 0,-9 -1,-2 -3,-2 -4,-2 -1,0 -2,0 -3,1 0,13 0,16 0,29l0 0c-6,0 -8,0 -15,0l-1 0c0,-3 0,-16 0,-19 0,-9 -1,-11 -4,-11 -1,0 -2,0 -4,1 0,14 1,16 1,29l-1 0 -15 0 0 0c0,-17 0,-18 0,-22 0,-8 0,-12 -1,-17l1 -1z"/>
  <path class="fil2" d="M386 85c0,-2 0,-7 -5,-7 0,0 -1,0 -2,0 -3,2 -3,5 -3,7l10 0zm-10 8c1,3 1,4 4,6 1,1 3,1 7,1 4,0 8,0 12,-3l0 1 0 10 -1 0c-1,1 -1,1 -2,1 -2,1 -6,2 -12,2 -4,0 -10,-1 -15,-4 -6,-4 -8,-10 -8,-17 0,-16 11,-22 21,-22 4,0 8,1 12,4 6,5 7,15 7,20l-1 1 -24 0z"/>
  <path class="fil0" d="M438 104c-1,2 -1,3 -1,6l0 0c-14,0 -15,0 -29,0l-1 0c0,-6 1,-16 1,-29 0,-12 -1,-18 -1,-24l1 -1c4,0 4,0 8,0l1 0c-1,15 -1,33 -1,35 0,6 0,9 0,12 9,0 11,0 21,0l1 1z"/>
  <path class="fil0" d="M464 89c-8,1 -15,2 -15,9 0,0 0,7 7,7 5,0 8,-3 9,-4l0 -12 -1 0zm8 5c0,10 1,11 1,16l0 0c-4,0 -5,0 -8,0l-1 0 1 -3c-2,1 -5,4 -11,4 -8,0 -13,-5 -13,-13 0,-10 8,-13 22,-15l1 0c0,-2 0,-4 0,-5 -1,-1 -3,-3 -7,-3 -5,0 -8,2 -11,3l-1 0c0,-4 0,-4 0,-6l1 0c4,-2 9,-3 13,-3 6,0 11,2 13,8 0,2 0,7 0,10l0 7z"/>
  <path class="fil0" d="M492 104c2,0 9,1 13,-4 2,-2 4,-7 4,-11 0,-5 -2,-8 -4,-10 -2,-2 -5,-3 -7,-3 -4,0 -7,1 -9,2 0,12 0,15 1,26l2 0zm-4 6c-3,0 -4,0 -6,0l-1 0c0,-5 1,-10 1,-21l0 -11c-1,-14 -1,-19 -1,-27l0 0 8 -2 1 1 -1 23c2,-1 5,-4 11,-4 10,0 17,7 17,20 0,3 0,9 -5,14 -6,8 -16,7 -23,7l-1 0z"/>
 </g>
</svg>
