<?xml version="1.0" encoding="UTF-8"?>
<!DOCTYPE svg PUBLIC "-//W3C//DTD SVG 1.1//EN" "http://www.w3.org/Graphics/SVG/1.1/DTD/svg11.dtd">
<!-- Creator: CorelDRAW X7 -->
<svg xmlns="http://www.w3.org/2000/svg" xml:space="preserve" width="126px" height="100px" version="1.1" style="shape-rendering:geometricPrecision; text-rendering:geometricPrecision; image-rendering:optimizeQuality; fill-rule:evenodd; clip-rule:evenodd"
viewBox="0 0 175 140"
 xmlns:xlink="http://www.w3.org/1999/xlink">
 <defs>
  <style type="text/css">
   <![CDATA[
    .fil0 {fill:#6F2E80}
   ]]>
  </style>
 </defs>
 <g id="Layer_x0020_1">
  <metadata id="CorelCorpID_0Corel-Layer"/>
  <path class="fil0" d="M125 132c0,4 0,4 2,4l0 1 -9 0 0 -1c3,0 3,0 3,-4l0 -10c0,-2 0,-3 -3,-3l0 -1 7 -2 0 16z"/>
  <path class="fil0" d="M144 124c0,-3 -1,-7 -5,-7 -3,0 -5,4 -5,7l10 0zm-10 2c0,4 1,10 6,10 3,0 6,-1 7,-4l1 1c-2,3 -5,5 -8,5 -6,0 -10,-5 -10,-11 0,-5 3,-11 9,-11 6,0 9,5 9,10l-14 0z"/>
  <path class="fil0" d="M136 72c1,-4 0,-6 -3,-6 -2,0 -5,4 -6,7 -3,4 -4,10 -6,14 4,-3 12,-9 15,-15zm-85 -2c-8,6 -14,16 -15,24 -1,6 1,12 8,12 7,1 15,-6 20,-11 4,-5 8,-12 9,-16 0,-2 0,-3 -1,-5 -1,0 -1,-1 -1,-1 0,0 1,0 2,1 0,0 2,2 2,7 -1,5 -4,11 -8,16 -5,5 -15,11 -23,11 -9,-1 -13,-6 -12,-14 1,-8 7,-18 17,-25 10,-7 21,-12 31,-12 11,0 23,4 21,20 -1,12 -22,37 -34,49l0 1c6,-5 12,-9 21,-16 8,-6 18,-13 24,-18 2,-6 5,-13 8,-18 5,-7 10,-11 14,-11 3,0 6,3 4,8 -2,7 -12,14 -17,19 -3,12 -7,27 -13,36l0 0c7,-6 23,-20 34,-30 19,-17 25,-29 26,-36 1,-2 1,-5 -1,-6 -1,-1 -2,-1 -2,-1 0,-1 1,-1 2,-1 5,0 8,4 7,9 -1,8 -9,20 -30,37 -15,12 -29,25 -42,37 -1,1 -3,2 -5,2 -2,0 -2,-1 -1,-3 7,-9 11,-27 15,-38l0 0c-4,3 -15,11 -24,18 -8,6 -25,18 -32,23 -1,1 -3,2 -4,2 -2,0 -3,-2 -1,-4 7,-7 15,-17 24,-29 8,-11 15,-24 17,-34 1,-10 -4,-14 -12,-14 -9,0 -20,5 -28,11z"/>
  <path class="fil0" d="M124 111c0,1 -1,2 -2,2 -1,0 -2,-1 -2,-2 0,-2 1,-3 2,-3 1,0 2,1 2,3z"/>
  <path class="fil0" d="M1 111c0,2 0,2 1,2 0,0 1,0 3,0l4 0c2,0 3,0 4,0 1,0 1,0 1,-1 0,0 0,0 0,-1 0,0 0,0 0,0 0,0 1,0 1,0 0,2 0,3 0,3 0,2 0,3 0,3 0,0 0,0 0,0 0,0 -1,0 -1,0 0,-1 0,-1 -1,-2 0,0 -1,0 -4,0l-4 1c-3,0 -4,0 -4,1 0,0 0,0 0,0 0,1 0,1 0,1 0,0 0,0 0,0 0,-1 -1,-1 -1,-1 0,0 0,0 0,0 0,0 0,-1 0,-3 0,-1 0,-2 0,-2 0,0 0,0 0,0l1 -1z"/>
  <path class="fil0" d="M7 105c0,-1 0,-2 0,-2 0,-1 0,-2 -1,-2 -1,0 -1,0 -1,-1 1,0 2,1 3,1 1,0 1,0 2,-1 0,1 0,1 0,1 0,0 0,0 0,0 0,0 -1,0 -1,0 -1,1 -1,1 -1,2 0,0 0,1 0,2 0,0 0,0 0,1 0,0 0,0 0,0 0,0 1,0 3,0 1,0 2,0 2,0 1,0 1,-1 1,-2 0,-2 0,-4 -3,-4 0,0 0,-1 0,-1 0,0 0,0 0,0 2,0 3,0 4,1 0,0 0,0 0,0 0,0 0,0 0,1 0,1 0,2 0,4 0,1 0,3 0,5 0,0 -1,0 -1,0 0,0 0,0 0,0 0,-1 0,-1 -1,-1 0,0 -2,-1 -4,-1l-4 0c-3,0 -3,0 -4,0 0,0 0,0 0,0 0,1 0,1 0,1 0,1 0,1 0,1l-1 -1c0,0 0,0 0,0l0 0c0,-1 0,-2 0,-3l0 -2c0,-2 0,-3 0,-4 0,0 0,0 0,0 1,-1 1,-1 1,-1 1,1 2,1 3,1 0,0 0,0 0,0 -2,1 -3,1 -3,2l0 1c0,2 0,2 0,2 0,1 1,1 1,1 1,0 3,0 4,0 1,0 1,0 1,0l0 -1z"/>
  <path class="fil0" d="M8 92c0,-1 0,-2 0,-2 0,-1 0,-1 -1,-2 0,0 0,0 0,-1 1,1 2,1 3,1 0,0 1,0 2,0 0,0 0,0 0,1 0,0 -1,0 -1,0 0,0 0,0 -1,0 0,0 0,0 -1,1 0,0 0,1 0,2 0,1 0,1 0,1 0,0 0,0 0,0 0,0 1,0 3,1 1,0 2,0 2,0 1,0 1,-1 1,-2 0,-2 0,-4 -2,-5 0,0 0,0 0,0 0,0 0,0 0,0 1,0 3,1 3,1 1,0 1,0 1,0 0,0 -1,0 -1,1 0,1 0,2 0,4 -1,2 -1,3 -1,5 0,0 0,0 0,0 -1,0 -1,0 -1,0 0,-1 0,-1 0,-2 0,0 -2,0 -4,0l-5 -1c-2,0 -3,0 -3,0 0,0 0,0 0,0 0,0 0,0 -1,1 0,0 0,0 0,0l0 0c0,0 0,0 0,0l0 -1c0,-1 0,-1 0,-3l1 -2c0,-1 0,-2 0,-3 0,-1 0,-1 0,-1 0,0 0,0 1,0 1,0 2,1 3,1 0,0 -1,0 -1,0 -1,1 -2,1 -2,2l0 1c-1,1 -1,2 -1,2 0,0 1,0 1,0 2,1 3,1 4,1 1,0 1,0 1,0l0 -1z"/>
  <path class="fil0" d="M11 79c0,-1 0,-1 0,-2 0,-1 0,-1 -1,-2 0,0 0,0 0,0 1,0 2,0 3,0 0,1 1,1 2,1 0,0 0,0 0,0 -1,1 -1,1 -1,1 0,0 0,0 -1,0 0,0 -1,0 -1,1 0,0 0,1 0,1 -1,1 -1,1 -1,1 0,0 0,1 1,1 0,0 1,0 2,1 2,0 2,0 3,0 0,0 0,-1 1,-2 0,-2 0,-3 -2,-5 0,0 0,0 0,0 0,0 0,0 0,0 1,0 3,1 3,1 1,0 1,0 1,1 -1,0 -1,0 -1,0 0,1 0,2 -1,4 0,2 -1,4 -1,5 0,0 0,0 -1,0 0,0 0,0 0,0 0,-1 0,-1 0,-2 0,0 -2,0 -4,-1l-4 -1c-3,-1 -3,-1 -3,-1 -1,0 -1,0 -1,1 0,0 0,0 0,1 0,0 0,0 -1,0l0 -1c0,0 0,0 0,0l0 0c0,-1 1,-2 1,-3l0 -2c1,-1 1,-3 1,-4 0,0 0,0 1,0 0,0 0,0 0,0 1,0 2,1 3,1 0,0 0,0 -1,0 -1,0 -2,1 -2,2l-1 1c0,1 0,1 0,2 0,0 0,0 1,0 1,1 3,1 4,1 0,0 0,0 0,0l1 -1z"/>
  <path class="fil0" d="M21 65c-2,0 -5,-1 -9,-1 -2,0 -2,0 -3,1 0,0 0,0 0,0 0,0 -1,-1 -1,-1 0,0 0,0 0,0 1,0 1,-1 1,-2 1,0 1,-1 1,-2 0,0 1,0 1,0 0,0 0,0 0,0 0,1 0,1 0,1 0,0 1,1 1,1 3,0 6,0 9,1 0,0 0,0 0,-1 -1,0 -3,-3 -4,-4 0,-1 -1,-1 -1,-1 -1,0 -2,0 -2,0 -1,0 -1,0 -2,1 0,0 0,0 0,0 0,0 0,-1 0,-1 0,0 0,-1 1,-2 0,-1 1,-1 1,-2 0,0 0,0 0,1 0,1 0,1 1,1 2,0 6,1 9,1 0,0 0,0 0,0 0,-1 -5,-6 -7,-7 0,0 0,0 0,0 0,1 -1,1 -1,1 0,0 0,0 0,0 0,0 0,0 0,-1 0,0 0,-1 1,-1 0,-1 0,-1 0,-2 0,0 1,0 1,0l0 0c0,0 0,0 0,0 0,1 0,1 1,3 1,1 4,5 7,7 0,1 1,1 2,2 0,0 0,1 0,1 -1,0 -1,0 -1,0 0,0 -1,0 -2,0 -1,-1 -5,-1 -7,-1 1,1 3,3 5,5 0,0 1,1 1,2 0,0 0,0 0,0 0,0 0,0 0,0 0,0 0,0 0,0 0,0 -2,0 -3,0z"/>
  <path class="fil0" d="M25 47c0,1 0,1 0,1 0,1 1,1 2,2 1,1 2,1 3,1 1,0 1,0 2,0 0,-1 0,-1 0,-1 0,-1 -1,-2 -2,-2 -1,-1 -3,-2 -4,-2 0,0 -1,1 -1,1l0 0zm0 -1c1,-1 3,-2 6,-1 1,2 2,3 2,4 0,1 -1,2 -1,3 -1,0 -2,1 -3,1 -1,0 -2,0 -3,-1 -1,0 -2,-1 -2,-2 0,0 0,-1 0,-2 0,0 0,-2 1,-2l0 0z"/>
  <path class="fil0" d="M41 40c-1,1 -2,2 -3,3 0,0 0,0 0,0 0,0 0,0 0,0 0,0 0,0 0,-1 0,0 0,0 0,-1 -1,0 -2,-1 -3,-2 -1,-1 -1,-1 -1,-1 -1,0 -1,0 -1,0 -1,1 -1,1 -1,2 0,0 0,0 0,0 1,1 2,2 2,2 2,2 2,2 3,1 0,0 0,0 0,0 0,1 0,1 0,1 0,0 0,1 -1,1 0,1 -1,1 -1,2 0,0 0,-1 -1,-1 1,0 1,0 1,0 0,0 0,-1 -1,-1 0,0 -1,-1 -2,-2 -1,-1 -1,-1 -1,-1 0,0 0,0 -1,0 0,0 0,0 0,0 0,0 -1,0 -1,0 1,-2 1,-3 1,-3 0,0 0,0 0,0 0,0 0,0 0,0l1 1c1,-1 1,-2 1,-3 0,0 0,0 0,0 1,-1 2,-1 3,-1 0,-1 0,-2 0,-2 0,-1 1,-1 1,-2 0,0 1,0 1,0 1,0 1,0 3,1 1,1 1,2 2,2 1,1 1,1 1,1 0,0 1,0 1,0 0,0 0,0 0,0 0,0 1,0 1,0l-1 1c-1,1 -1,1 -2,2 0,0 0,0 0,0 0,0 0,0 0,0 0,0 0,0 0,0 0,-1 0,-1 0,-1 -1,-1 -2,-2 -3,-2 -1,-2 -1,-2 -2,-2 0,0 -1,0 -1,1 0,0 0,1 0,1 -1,0 0,0 0,1 1,0 3,2 3,3 1,0 1,0 1,-1 1,0 1,0 1,0l0 1z"/>
  <path class="fil0" d="M45 28c0,-1 -1,-1 -2,-1 0,0 0,0 0,1 0,0 0,1 1,2 1,-1 1,-1 1,-2 1,0 1,0 0,0l0 0zm-2 -2c1,0 1,-1 2,-1 0,0 1,1 2,1 0,0 0,0 0,0 0,0 0,0 0,0 0,0 1,1 0,1 0,1 -2,3 -2,4 0,0 0,0 0,0 1,1 2,1 3,1 1,-1 1,-2 1,-3 0,0 1,0 1,0 0,0 0,1 0,1 0,1 -1,2 -1,3 0,0 0,0 0,0 -2,1 -3,1 -3,1 -1,0 -2,-1 -3,-2 -1,-1 -1,-3 -1,-4 0,-1 1,-2 1,-2l0 0z"/>
  <path class="fil0" d="M52 30c0,-1 0,-1 0,-2 0,0 -1,-1 -1,-2 -1,-1 -1,-1 -2,-2 0,0 0,0 -1,0 0,0 0,0 0,0 0,0 0,0 0,-1 1,-1 1,-2 1,-2 0,0 0,0 0,0 0,0 1,0 1,0 0,0 0,1 0,1 0,0 0,0 0,0 1,-1 1,-1 1,-2 0,0 1,0 1,-1 1,0 1,0 2,0 0,0 1,1 2,2 0,0 0,1 1,1 0,1 1,2 1,3 0,0 0,0 1,0 0,0 0,-1 0,-1 0,0 0,0 0,0 1,0 1,1 1,1 0,0 0,0 0,0 -2,1 -3,2 -3,2 0,0 0,0 -1,0l0 0c1,-1 1,-1 0,-2 0,0 -1,-1 -1,-2 -1,-1 -1,-2 -2,-2 0,0 -1,0 -1,0 0,1 -1,1 -1,1 0,1 0,1 0,1 1,1 2,3 3,4 0,1 0,1 1,0 0,0 0,0 0,0l0 1 -1 1c-1,1 -2,1 -2,1 0,0 0,0 0,0l0 0z"/>
  <path class="fil0" d="M63 16c0,0 -1,0 -1,0 0,0 -1,0 -1,0 0,-1 0,-1 0,-1 1,-1 2,-1 3,-2 0,0 0,0 0,0 0,0 0,0 0,0 0,1 2,4 2,5 1,1 1,2 1,2 0,0 0,0 0,0 1,0 1,0 1,0 0,0 0,0 0,0l0 1c0,0 0,0 0,0 0,0 -1,0 -2,1 -1,0 -1,1 -1,1 0,0 0,0 0,0 0,-1 -1,-1 -1,-1 0,0 0,0 0,0 1,0 1,-1 1,-1 0,-1 -1,-2 -1,-3l-1 -2zm-2 -7c1,0 1,0 2,1 0,0 0,1 -1,1 0,1 -1,0 -1,0 -1,-1 0,-2 0,-2l0 0z"/>
  <path class="fil0" d="M69 20c1,-1 1,-1 1,-2 0,0 -1,-1 -1,-2 0,-1 0,-2 -1,-2 0,0 0,-1 -1,-1 0,0 0,0 0,0 0,0 0,0 0,0 1,-1 2,-2 2,-2 0,0 0,0 0,0 0,0 0,0 0,0 1,0 1,1 1,1 0,0 0,0 0,0 0,-1 1,-1 1,-1 0,-1 1,-1 1,-1 1,0 1,0 2,0 0,0 1,1 1,2 0,0 1,1 1,2 0,1 1,2 1,2 0,1 0,1 0,1 0,0 1,-1 1,-1 0,0 0,0 0,0 0,1 0,1 0,1 0,0 0,0 0,0 -2,1 -3,1 -3,1 0,1 0,1 -1,0l0 0c1,0 1,-1 1,-1 0,-1 -1,-2 -1,-3 -1,-1 -1,-2 -1,-2 -1,0 -1,0 -1,0 -1,0 -2,0 -2,1 0,0 0,0 0,0 1,1 1,4 2,5 0,0 0,0 1,0 0,0 0,0 0,0l0 1 -2 1c-1,0 -1,0 -1,0 0,0 -1,0 -1,0l0 0z"/>
  <path class="fil0" d="M88 7c1,0 1,0 2,0 1,0 1,0 1,-2 0,0 0,0 1,0 0,1 0,2 0,3 0,0 0,1 0,2 0,0 0,0 0,0 0,0 0,0 0,0 -1,-1 -1,-1 -1,-1 0,-1 0,-1 -1,-1 -1,0 -1,0 -2,0 -1,0 -1,0 -1,1 0,0 0,0 0,0 0,0 0,1 0,3 0,1 0,2 0,2 1,0 2,0 3,0 2,0 3,-1 3,-3 0,0 1,0 1,0 0,0 0,0 0,0 0,1 0,3 0,3 0,0 0,0 0,0 -1,0 -1,0 -1,1 -1,0 -2,0 -4,0 -2,0 -4,1 -5,1 0,0 0,-1 0,-1 0,0 0,0 0,0 1,0 1,0 1,-1 0,0 0,-2 -1,-4l0 -4c0,-3 -1,-3 -1,-3 0,-1 0,-1 0,-1 0,0 -1,0 -1,0 0,0 0,0 0,0l0 0c0,-1 0,-1 0,-1l0 0c1,0 2,0 3,0l2 0c2,-1 3,-1 4,-1 0,0 0,0 1,0 0,0 0,0 0,1 0,1 0,2 0,3 -1,0 -1,0 -1,-1 -1,-1 -1,-2 -2,-2l-1 1c-1,0 -2,0 -2,0 0,0 0,0 0,1 0,1 0,3 0,4 0,0 1,1 1,1l1 -1z"/>
  <path class="fil0" d="M96 14c0,-1 1,-1 1,-1 0,-1 0,-2 0,-3 0,-1 0,-2 0,-2 0,0 0,-1 -1,-1 0,0 0,0 0,0 0,0 0,-1 0,-1 1,0 2,-1 2,-1 0,0 0,0 0,0 1,0 1,0 1,0 0,1 0,1 0,1 0,1 0,1 0,1 0,-1 1,-1 1,-1 1,-1 1,-1 2,-1 0,0 1,1 1,1 0,0 1,1 1,2 0,1 0,1 0,2 0,1 0,2 0,3 0,0 0,0 0,0 0,0 1,0 1,0 0,0 0,0 0,0 0,1 0,1 0,1 0,0 0,0 0,0 -2,0 -3,0 -4,0 0,0 0,0 0,0l0 0c1,-1 1,-1 1,-1 0,-1 0,-2 0,-4 0,-1 0,-1 -1,-2 0,0 0,0 -1,0 0,0 -1,0 -1,0 0,0 0,0 0,1 0,1 0,3 0,5 0,0 0,0 1,1 0,0 0,0 0,0l0 0 -2 0c-1,0 -2,0 -2,0 0,0 0,0 0,0l0 0z"/>
  <path class="fil0" d="M112 10c0,0 0,-1 0,-2 -1,-1 -1,-1 -2,-1 0,0 -1,0 -1,0 0,0 0,0 0,1 0,1 0,2 0,3 1,1 1,1 2,1 0,0 1,0 1,-2l0 0zm-3 9c1,0 2,0 3,0 0,0 0,-1 0,-1 0,0 0,-1 0,-1 0,0 -1,-1 -2,-1 0,0 -1,0 -2,0 0,0 0,0 0,1 -1,0 -1,0 -1,1 0,0 0,1 2,1l0 0zm2 -13c1,0 2,0 2,0 0,1 0,1 0,1 1,0 2,-1 2,-1 0,0 0,1 0,1 0,0 0,1 0,1 0,0 0,0 0,0 0,0 -1,0 -2,0 1,0 1,1 1,1 -1,2 -2,3 -3,4 -1,0 -1,0 -2,0 0,0 0,0 0,1 0,0 0,0 1,0 0,0 1,0 1,0 1,0 2,1 3,1 0,1 0,1 0,2 0,1 0,1 -1,2 -1,1 -2,1 -3,1 0,1 -1,1 -2,1 -2,-1 -3,-2 -3,-3 0,-1 1,-1 1,-1 1,-1 1,-1 2,-1 -1,-1 -1,-1 -1,-2 0,0 0,0 0,-1 0,0 1,0 2,0 -1,0 -1,-1 -2,-1 0,-1 0,-2 0,-3 0,-1 1,-2 2,-3 1,0 1,0 2,0l0 0z"/>
  <path class="fil0" d="M120 2c1,1 1,1 1,2 0,1 -1,1 -1,1 -1,0 -1,-1 -1,-2 0,0 1,-1 1,-1l0 0zm-3 7c0,0 0,0 0,-1 -1,0 -1,0 0,0 0,0 0,0 0,0 1,-1 2,-1 3,-1 0,0 0,0 0,0 0,0 0,0 0,0 0,2 -1,5 -1,6 -1,1 -1,1 -1,2 0,0 0,0 0,0 1,0 1,0 1,0 0,0 0,1 0,1l0 0c0,0 0,0 0,0 -1,0 -2,0 -2,0 -1,0 -2,0 -2,0 0,0 0,0 0,-1 0,0 0,0 0,0 0,0 0,0 0,0 1,0 1,0 1,-1 0,0 1,-2 1,-3l0 -2z"/>
  <path class="fil0" d="M120 16c1,0 1,0 2,-1 0,0 0,-2 0,-2 1,-1 1,-2 1,-2 0,-1 0,-1 -1,-1 0,0 0,0 0,-1 0,0 0,0 1,0 1,0 2,0 2,0 0,0 0,0 0,0 1,0 1,0 1,0 -1,0 -1,1 -1,1 0,0 0,0 0,0 1,0 2,0 2,0 1,0 1,0 1,0 1,0 1,0 2,1 0,0 0,1 0,2 0,1 -1,1 -1,2 0,1 0,2 -1,3 0,0 0,0 0,0 1,0 1,0 1,0 0,0 0,0 0,1 0,0 0,0 0,0 0,0 0,0 0,0 -2,0 -3,-1 -4,-1 0,0 0,0 0,0l0 0c1,0 1,-1 1,-1 1,-1 1,-2 1,-3 1,-1 1,-2 1,-2 0,-1 -1,-1 -1,-1 -1,0 -1,0 -2,0 0,0 0,0 0,0 0,1 -1,4 -2,5 0,0 0,1 1,1 0,0 0,0 0,0l0 1 -2 -1c-1,0 -1,0 -2,0 0,0 0,0 0,-1l0 0z"/>
  <path class="fil0" d="M137 16c0,-1 0,-2 0,-2 -1,0 -1,0 -1,0 -1,0 -1,1 -2,2 1,0 2,0 3,0 0,0 0,0 0,0l0 0zm0 -3c1,0 2,1 2,2 0,0 0,1 0,1 0,1 0,1 1,1 0,0 0,0 -1,0 0,0 0,0 0,0 -1,0 -4,0 -5,0 0,0 0,0 0,0 -1,1 0,3 1,3 1,1 2,1 2,0 1,0 1,0 1,0 0,1 -1,1 -1,1 -1,1 -2,1 -3,1 0,0 0,-1 -1,-1 -1,0 -1,-2 -2,-2 0,-1 0,-2 1,-3 0,-2 2,-3 4,-3 0,0 1,0 1,0l0 0z"/>
  <path class="fil0" d="M145 20c0,-1 0,-2 0,-2 0,0 0,0 -1,0 0,0 -1,1 -2,2 1,0 2,0 3,0 0,0 0,0 0,0l0 0zm1 -3c0,1 1,1 1,2 0,0 0,1 0,2 0,0 0,0 1,0 0,0 -1,0 -1,0 0,0 0,1 0,1 -1,0 -4,-1 -5,-2 0,0 0,0 0,1 -1,1 -1,2 0,3 1,1 2,1 3,0 0,0 1,0 0,1 0,0 0,0 0,0 -2,1 -3,0 -3,0 0,0 -1,0 -1,0 -1,-1 -2,-2 -2,-2 0,-1 0,-2 1,-3 1,-2 2,-3 4,-3 1,0 1,0 2,0l0 0z"/>
  <path class="fil0" d="M146 27c0,0 0,0 1,0 0,0 0,-1 1,-3l1 -1c1,-1 1,-1 0,-1 0,0 0,-1 0,-1 1,0 3,0 3,0 0,0 1,0 1,0 0,0 0,1 0,1 -1,0 -1,0 -2,1 1,0 2,0 3,0 0,0 0,0 1,0 0,0 0,1 0,2 0,0 -1,0 -2,0 0,0 0,0 0,0 0,0 0,0 0,0 0,0 0,-1 -1,-1 0,0 0,0 -1,0 0,0 0,0 -1,1l-1 2c0,0 -1,1 -1,1 0,0 0,0 1,0l1 1c0,0 0,0 0,0l-1 1c-1,-1 -2,-1 -2,-2 -1,0 -2,-1 -2,-1 0,0 0,0 0,0l1 0z"/>
  <path class="fil0" d="M162 22c0,0 0,1 0,2 -1,0 -1,0 -2,0 0,0 0,-1 0,-2 1,0 1,0 2,0l0 0zm-5 5c0,-1 0,-1 -1,-1 0,0 0,0 0,-1 0,0 0,0 1,0 0,0 1,1 2,1 0,0 0,0 0,0 1,0 0,0 0,0 -1,2 -3,4 -3,5 -1,1 -1,1 -1,1 -1,1 -1,1 0,1 0,0 0,0 0,0 0,0 0,0 0,0l0 1c0,0 0,0 0,0 -1,0 -2,-1 -2,-1 -1,-1 -2,-1 -2,-1 0,0 0,0 0,-1 0,0 1,0 1,0 0,0 0,0 0,0 0,0 1,0 1,0 0,0 1,-1 2,-3l2 -1z"/>
  <path class="fil0" d="M156 34c1,0 1,1 1,0 1,0 2,-1 2,-2 1,0 1,-1 2,-1 0,-1 0,-1 -1,-2 0,0 0,0 1,0 0,0 0,0 0,0 1,0 2,1 2,1 1,0 1,0 1,0 0,0 0,0 0,0 0,0 -1,1 -1,1 0,0 0,0 0,0 1,0 1,0 2,1 0,0 1,0 1,0 0,0 1,1 1,1 0,1 -1,2 -1,3 -1,0 -1,1 -2,1 0,1 -1,2 -2,2 0,1 0,1 0,1 0,0 1,0 1,0 0,0 0,0 0,0 0,1 0,1 0,1 -1,0 -1,0 -1,0 -1,-1 -2,-2 -2,-2 0,-1 0,-1 0,-1l0 0c0,0 1,0 1,0 1,-1 1,-2 2,-3 1,0 2,-1 2,-2 0,0 -1,0 -1,-1 0,0 -1,0 -1,0 0,0 -1,0 -1,0 0,1 -2,3 -3,4 0,0 0,0 0,1 0,0 0,0 0,0l0 0 -2 -1c-1,-1 -1,-1 -1,-1 0,0 0,0 0,0l0 -1z"/>
  <path class="fil0" d="M170 42c1,0 1,-1 1,-1 1,-1 1,-2 0,-3 0,0 0,0 -1,0 0,0 0,0 -1,1 0,0 -1,1 -1,2 0,1 0,2 0,2 1,0 1,0 2,-1l0 0zm-8 6c1,0 2,1 2,1 1,0 1,0 2,0 0,-1 0,-1 0,-1 0,-1 0,-1 -1,-2 0,-1 -1,-1 -1,-1 0,0 -1,-1 -1,-1 -1,0 -1,1 -1,1 -1,0 -1,1 0,3l0 0zm11 -10c0,1 0,2 1,2 0,0 0,1 0,1 0,0 1,0 1,1 0,0 0,0 0,0 0,0 0,1 0,1 0,0 -1,0 -1,0 0,0 0,-1 -1,-1 0,0 0,1 -1,1 -1,1 -3,1 -4,0 -1,0 -1,0 -2,0 0,0 0,0 0,0 0,0 0,1 0,1 0,0 1,1 1,1 1,1 1,2 1,2 0,1 0,1 -1,2 0,0 -1,1 -1,1 -2,0 -3,-1 -4,-1 0,0 -1,-1 -1,-1 -2,-2 -2,-3 -1,-4 1,0 1,-1 2,-1 0,1 1,1 2,1 -1,-1 -1,-2 0,-2 0,0 0,0 0,0 1,0 1,0 2,0 0,0 0,-1 0,-1 0,-1 0,-2 1,-3 1,-1 3,-1 4,0 1,0 1,0 2,0l0 0z"/>
 </g>
</svg>
